<svg xmlns="http://www.w3.org/2000/svg" xmlns:xlink="http://www.w3.org/1999/xlink" width="1440" height="934" viewBox="0 0 1440 934" fill="none"><defs><rect id="path_0" x="0" y="0" width="1440" height="934" /><radialGradient id="linear_0" cx="54.601%" cy="64.606%" fx="54.601%" fy="64.606%" r="0.5000000000000001" gradientTransform="translate(0.54601 0.64606) scale(0.649685642432556 1) rotate(90) scale(1 1) translate(-0.54601 -0.64606)" ><stop offset="0" stop-color="#5AD68C" stop-opacity="0.19" /><stop offset="1" stop-color="#5AD68C" stop-opacity="0" /></radialGradient><radialGradient id="linear_1" cx="93.00500000000001%" cy="2.912%" fx="93.00500000000001%" fy="2.912%" r="0.541500206555824" gradientTransform="translate(0.93005 0.02912) scale(0.649685642432556 1) rotate(40.367798977983625) scale(1 1) translate(-0.93005 -0.02912)" ><stop offset="0" stop-color="#ACDEFF" stop-opacity="0.26" /><stop offset="0.9931" stop-color="#ACDEFF" stop-opacity="0" /></radialGradient><radialGradient id="linear_2" cx="79.37100000000001%" cy="18.848164118129105%" fx="79.37100000000001%" fy="18.848164118129105%" r="0.9937612366529204" gradientTransform="translate(0.79371 0.18848164118129107) scale(0.48776514122026565 1) rotate(50.04135031322028) scale(1 1) translate(-0.79371 -0.18848164118129107)" ><stop offset="0" stop-color="#FFFFFF" stop-opacity="0.2" /><stop offset="1" stop-color="#FFFFFF" stop-opacity="0.002" /></radialGradient><radialGradient id="linear_3" cx="43.538%" cy="83.47934905432719%" fx="43.538%" fy="83.47934905432719%" r="0.9937612366529207" gradientTransform="translate(0.43538 0.8347934905432719) scale(0.48776514122026565 1) rotate(50.041350313220335) scale(1 1) translate(-0.43538 -0.8347934905432719)" ><stop offset="0" stop-color="#2BAB5E" stop-opacity="0.2" /><stop offset="1" stop-color="#3EB36D" stop-opacity="0" /></radialGradient><linearGradient id="linear_4" x1="56.730999999999995%" y1="43.891999999999996%" x2="87.393%" y2="57.940999999999995%" gradientUnits="objectBoundingBox"><stop offset="0" stop-color="#2BAB5E" stop-opacity="1" /><stop offset="1" stop-color="#2BAB5E" stop-opacity="0.01" /></linearGradient><linearGradient id="linear_5" x1="-124.10296700976706%" y1="5.90333527493688%" x2="86.79400000000001%" y2="51.339%" gradientUnits="objectBoundingBox"><stop offset="0" stop-color="#FFB963" stop-opacity="0" /><stop offset="0.7712" stop-color="#FF9582" stop-opacity="1" /><stop offset="1" stop-color="#FF8A8A" stop-opacity="1" /></linearGradient><path id="path_1"
        transform="translate(0 0) rotate(0 233.73183503209594 627.505703422053)"
        d="M467.46,1159.18L467.46,393.29L467.46,234.3L59.4,1.27C55.8,0.44 52.18,0 48.52,0C44.92,-0.02 41.34,0.35 37.83,1.14C34.3,1.93 30.92,3.09 27.66,4.62C24.37,6.17 21.28,8.09 18.41,10.35C15.5,12.62 12.89,15.18 10.59,18.03C8.34,20.83 6.42,23.84 4.83,27.08C3.27,30.32 2.05,33.69 1.24,37.17C0.42,40.71 0,44.28 0,47.91L0,184.43L0,1021.28L342.31,1250.77C371.65,1259.71 403.54,1254.35 428.22,1236.24C452.87,1218.19 467.46,1189.6 467.46,1159.18Z" /><radialGradient id="linear_6" cx="78.07%" cy="32.351%" fx="78.07%" fy="32.351%" r="0.4221201300577834" gradientTransform="translate(0.7807 0.32351) scale(1.0101182713794905 1) rotate(338.96211668393386) scale(1 0.52) translate(-0.7807 -0.32351)" ><stop offset="0" stop-color="#FFA069" stop-opacity="0.2" /><stop offset="0.3889" stop-color="#FFDFCC" stop-opacity="0.2" /><stop offset="1" stop-color="#FFE7D9" stop-opacity="0.002" /></radialGradient><radialGradient id="linear_7" cx="58.987%" cy="7.588%" fx="58.987%" fy="7.588%" r="0.29986838196115306" gradientTransform="translate(0.58987 0.07588) scale(1.0101182713794905 1) rotate(337.35461560968906) scale(1 0.52) translate(-0.58987 -0.07588)" ><stop offset="0" stop-color="#FFA069" stop-opacity="0.2" /><stop offset="0.3889" stop-color="#FFDFCC" stop-opacity="0.2" /><stop offset="1" stop-color="#FFE7D9" stop-opacity="0.002" /></radialGradient></defs><g opacity="1" transform="translate(0 0)  rotate(0 720 467)"><rect fill="#FFFFFF" opacity="1" transform="translate(0 0)  rotate(0 720 467)" x="0" y="0" width="1440" height="934" /><mask id="bg-mask-0" fill="white"><use xlink:href="#path_0"></use></mask><g mask="url(#bg-mask-0)" ><path id="矩形 1" fill-rule="evenodd" fill="url(#linear_0)" transform="translate(0 0)  rotate(0 720 467.77366255144034)" opacity="1" d="M0,935.55L1440,935.55L1440,0L0,0L0,935.55Z " /><path id="矩形 1" fill-rule="evenodd" fill="url(#linear_1)" transform="translate(0 0)  rotate(0 720 467.77366255144034)" opacity="1" d="M0,935.55L1440,935.55L1440,0L0,0L0,935.55Z " /><path id="路径 1" fill-rule="evenodd" style="fill:#5AD68C" transform="translate(286.3744855967079 372.43374456544086)  rotate(0 576.4074074074074 281.15144047448126)" opacity="1" d="M1152.81,562.3L1152.81,14.27C1090.43,-5.49 950.14,-15.73 857.72,59.67C765.3,135.06 730.68,236.64 728.01,287.48C663.01,261.94 462.91,219.38 269.15,287.48C75.4,355.57 22.62,500.28 0,562.3L1152.81,562.3Z " /><path id="路径 1" fill-rule="evenodd" fill="url(#linear_2)" transform="translate(286.3744855967079 372.43374456544086)  rotate(0 576.4074074074074 281.15144047448126)" opacity="1" d="M1152.81,562.3L1152.81,14.27C1090.43,-5.49 950.14,-15.73 857.72,59.67C765.3,135.06 730.68,236.64 728.01,287.48C663.01,261.94 462.91,219.38 269.15,287.48C75.4,355.57 22.62,500.28 0,562.3L1152.81,562.3Z " /><path id="路径 1" fill-rule="evenodd" fill="url(#linear_3)" transform="translate(286.3744855967079 372.43374456544086)  rotate(0 576.4074074074074 281.15144047448126)" opacity="1" d="M1152.81,562.3L1152.81,14.27C1090.43,-5.49 950.14,-15.73 857.72,59.67C765.3,135.06 730.68,236.64 728.01,287.48C663.01,261.94 462.91,219.38 269.15,287.48C75.4,355.57 22.62,500.28 0,562.3L1152.81,562.3Z " /><path id="路径 2" style="stroke:url(#linear_4); stroke-width:3.24; stroke-opacity:100; stroke-dasharray:0 0" transform="translate(644.4799999999996 370.61999999999995)  rotate(0 187.34002278329956 227.44)" d="M118.36,265.1C118.36,265.1 143.49,304.01 191.33,273.21C214.96,257.97 221.41,236.53 219.33,214.5C147.05,191.77 96.35,233.57 118.36,265.1Z M368.02,454.88C388.21,417.91 361.57,319.42 300.77,265.1C272.44,238.24 244.57,222.44 219.33,214.5 M219.33,214.5C214.99,168.52 173.49,119.98 173.49,119.98C107.01,34.05 53.51,9.73 0,0 " /><path id="圆形 1" fill-rule="evenodd" style="fill:#5AD68C" transform="translate(608 339)  rotate(0 32.427983539094654 32.427983539094654)" opacity="1" d="M32.43,0C14.52,0 0,14.52 0,32.43C0,50.34 14.52,64.86 32.43,64.86C50.34,64.86 64.86,50.34 64.86,32.43C64.86,14.52 50.34,0 32.43,0Z " /><path  id="圆形 1" style="stroke:#5AD68C; stroke-width:3.24; stroke-opacity:1; stroke-dasharray:0 0" transform="translate(608 339)  rotate(0 32.427983539094654 32.427983539094654)" d="M32.43,0C14.52,0 0,14.52 0,32.43C0,50.34 14.52,64.86 32.43,64.86C50.34,64.86 64.86,50.34 64.86,32.43C64.86,14.52 50.34,0 32.43,0Z " /><path  id="路径 3" style="stroke:#ACDEFF; stroke-width:1.62; stroke-opacity:1; stroke-dasharray:0 0" transform="translate(748.4732510288068 167.47360209212587)  rotate(0 336.0133744855966 110.02040060002761)" d="M0,220.04C0,220.04 38.1,139.78 126.47,117.89C214.84,96 280.5,192.48 372.11,156C463.72,119.51 498.58,20.61 569.92,3.58C641.26,-13.44 672.03,33.03 672.03,83.03C672.03,133.03 593.03,156 593.03,156 " /><path  id="路径 3" style="stroke:#ACDEFF; stroke-width:1.62; stroke-opacity:1; stroke-dasharray:0 0" transform="translate(882.2386831275721 160.51851851851853)  rotate(0 208.03287561163768 53.342862663602894)" d="M0,76.68C73.83,62.54 128.7,124.87 205.24,101.3C281.78,77.73 310.91,13.83 370.52,2.83C388.52,-0.49 403.67,-0.57 416.07,0.95 " /><g opacity="1" transform="translate(1044.5363299358078 228)  rotate(0 143.73183503209594 537.5057034220529)"><path id="减去顶层" fill-rule="evenodd" fill="url(#linear_5)" transform="translate(0 0)  rotate(0 143.73183503209594 537.5057034220529)" opacity="1" d="M248.22,1056.24C272.87,1038.19 287.46,1009.6 287.46,979.18L287.46,213.29L287.46,54.3L59.4,1.27C55.8,0.44 52.18,0 48.52,0C44.92,-0.02 41.34,0.35 37.83,1.14C34.3,1.93 30.92,3.09 27.66,4.62C24.37,6.17 21.28,8.09 18.41,10.35C15.5,12.62 12.89,15.18 10.59,18.03C8.34,20.83 6.42,23.84 4.83,27.08C3.27,30.32 2.05,33.69 1.24,37.17C0.42,40.71 0,44.28 0,47.91L0,184.43L0,1021.28L162.31,1070.77C191.65,1079.71 223.54,1074.35 248.22,1056.24Z " /></g><g opacity="1" transform="translate(864.5363299358078 48)  rotate(0 233.73183503209594 627.505703422053)"><mask id="mask-1" fill="white"><use xlink:href="#path_1"></use></mask><g mask="url(#mask-1)"></g><g mask="url(#mask-1)"><g opacity="1" transform="translate(-267.53632993580777 150)  rotate(0 400.9999999999999 531.0000000000001)"><path id="路径 1" fill-rule="evenodd" style="fill:#FFFFFF" transform="translate(549.5185185185185 166.58823529411762)  rotate(0 40.1 40.159663865546214)" opacity="1" d="M80.2,61.58L41.43,0L0,35.12L32.24,80.32L80.2,61.58Z " /><g opacity="1" transform="translate(0 0)  rotate(0 2.97037037037037 2.974789915966387)"><g opacity="1" transform="translate(548.7930859573413 166.36418340091575)  rotate(0 39.4951518275905 39.59319880149694)"><path id="路径 2" fill-rule="evenodd" style="fill:#FFFFFF" transform="translate(0 0)  rotate(0 39.4951518275905 39.59319880149694)" opacity="1" d="M78.99,60.71L40.81,0L0,34.62L31.76,79.19L78.99,60.71Z " /><path  id="路径 2" style="stroke:#995D14; stroke-width:3.24; stroke-opacity:1; stroke-dasharray:0 0" transform="translate(0 0)  rotate(0 39.4951518275905 39.59319880149694)" d="M78.99,60.71L40.81,0L0,34.62L31.76,79.19L78.99,60.71Z " /></g><path id="路径 3" fill-rule="evenodd" style="fill:#FFE7D9" transform="translate(531.9439270047488 183.28174982671533)  rotate(0 31.07574615083051 28.646473822366474)" opacity="1" d="M0,6.83L25.76,57.29L62.15,56.69C62.15,56.69 17.03,40.58 39.61,0L0,6.83Z " /></g><path  id="路径 4" style="stroke:#995D14; stroke-width:3.24; stroke-opacity:1; stroke-dasharray:0 0" transform="translate(549.5185185185185 166.58823529411762)  rotate(0 40.1 40.159663865546214)" d="M80.2,61.58L41.43,0L0,35.12L32.24,80.32L80.2,61.58Z " /><path id="路径 5"  style="fill:#FFFFFF" transform="translate(525.7555555555556 107.09243697478995)  rotate(0 37.129629629629626 47.59663865546219)" opacity="1" d="M46.1,87.91C-8.34,113.52 -10.75,67.05 19.03,19.02C51.45,-33.26 74.26,38.81 74.26,38.81L66.02,64.05 " /><path  id="路径 5" style="stroke:#995D14; stroke-width:3.24; stroke-opacity:1; stroke-dasharray:0 0" transform="translate(525.7555555555556 107.09243697478995)  rotate(0 37.129629629629626 47.59663865546219)" d="M46.1,87.91C-8.34,113.52 -10.75,67.05 19.03,19.02C51.45,-33.26 74.26,38.81 74.26,38.81L66.02,64.05 " /><path id="路径 6" fill-rule="evenodd" style="fill:#FF8103" transform="translate(528.7259259259257 71.39495798319327)  rotate(0 50.49629629629629 58.00840336134455)" opacity="1" d="M50.5,101.18L77.22,116.02C79.63,116.02 125.48,56.54 83.07,55.35C94.79,41.15 101.86,16.14 68.19,38.55C77.44,3.74 59.35,-21.06 36.83,25.75C8.67,2.74 -18.28,21.15 16.32,55.35C46.48,62.16 24.36,89.36 50.9,89.36L50.5,101.18Z " /><path  id="路径 6" style="stroke:#995D14; stroke-width:3.24; stroke-opacity:1; stroke-dasharray:0 0" transform="translate(528.7259259259257 71.39495798319327)  rotate(0 50.49629629629629 58.00840336134455)" d="M50.5,101.18L77.22,116.02C79.63,116.02 125.48,56.54 83.07,55.35C94.79,41.15 101.86,16.14 68.19,38.55C77.44,3.74 59.35,-21.06 36.83,25.75C8.67,2.74 -18.28,21.15 16.32,55.35C46.48,62.16 24.36,89.36 50.9,89.36L50.5,101.18Z " /><path id="路径 7"  style="fill:#FFFFFF" transform="translate(564.3703703703704 151.7142857142857)  rotate(0 14.85185185185185 14.873949579831935)" opacity="1" d="M0,5.29C32.57,-14.08 40.41,25.67 13.2,29.75 " /><path  id="路径 7" style="stroke:#995D14; stroke-width:3.24; stroke-opacity:1; stroke-dasharray:0 0" transform="translate(564.3703703703704 151.7142857142857)  rotate(0 14.85185185185185 14.873949579831935)" d="M0,5.29C32.57,-14.08 40.41,25.67 13.2,29.75 " /><path id="路径 8"  style="fill:#FFFFFF" transform="translate(558.4296296296296 193.36134453781509)  rotate(0 34.15925925925925 22.310924369747905)" opacity="1" d="M62.29,35.33L64.51,19.41C64.51,19.41 91.86,-37.99 0,44.62 " /><path  id="路径 8" style="stroke:#995D14; stroke-width:3.24; stroke-opacity:1; stroke-dasharray:0 0" transform="translate(558.4296296296296 193.36134453781509)  rotate(0 34.15925925925925 22.310924369747905)" d="M62.29,35.33L64.51,19.41C64.51,19.41 91.86,-37.99 0,44.62 " /><path id="路径 9" fill-rule="evenodd" style="fill:#FFFFFF" transform="translate(712.8888888888888 937.0588235294118)  rotate(0 41.58518518518518 52.058823529411775)" opacity="1" d="M33 104.12L0 0L58.36 21.73L83.17 104.03L33 104.12Z" /><g opacity="1" transform="translate(0 0)  rotate(0 2.97037037037037 2.974789915966387)"><g opacity="1" transform="translate(710.7057809151826 935.3370166548284)  rotate(0 41.60007132309021 51.63497916503845)"><path id="路径 10" fill-rule="evenodd" style="fill:#FFFFFF" transform="translate(0 0)  rotate(0 41.60007132309021 51.63497916503845)" opacity="1" d="M58.38,21.56Z M0,0L33.01,103.27L83.2,103.18L58.38,21.56L0,0Z " /><path  id="路径 10" style="stroke:#995D14; stroke-width:3.24; stroke-opacity:1; stroke-dasharray:0 0" transform="translate(0 0)  rotate(0 41.60007132309021 51.63497916503845)" d="M58.38,21.56Z M0,0L33.01,103.27L83.2,103.18L58.38,21.56L0,0Z " /></g><path id="路径 11" fill-rule="evenodd" style="fill:#FFE7D9" transform="translate(709.6349138799692 954.7449862600599)  rotate(0 37.55246860367027 23.16052694461861)" opacity="1" d="M71.29,41.11C78.69,63.3 73.04,7.47 73.04,7.47L42.07,0L5.5,4.2L0.91,12.97C-8.91,38.62 63.9,18.91 71.29,41.11Z " /></g><path  id="路径 12" style="stroke:#995D14; stroke-width:3.24; stroke-opacity:1; stroke-dasharray:0 0" transform="translate(712.8888888888888 937.0588235294118)  rotate(0 41.58518518518518 52.058823529411775)" d="M58.36,21.73Z M0,0L33,104.12L83.17,104.03L58.36,21.73L0,0Z " /><path id="路径 13" fill-rule="evenodd" style="fill:#FF8103" transform="translate(671.3037037037035 1014.403361344538)  rotate(0 65.34814814814816 23.798319327731097)" opacity="1" d="M119.83,0.71C119.83,0.71 92.42,15.82 68.17,0C68.17,0 19.34,21.26 10.5,24.96C6.21,26.55 2.8,29.94 1.12,34.26C-0.56,38.59 -0.34,43.44 1.71,47.6L124.28,39.98C126.39,39.79 128.32,38.64 129.5,36.84C130.69,35.04 131.01,32.79 130.38,30.72L119.83,0.71Z " /><path  id="路径 13" style="stroke:#995D14; stroke-width:3.24; stroke-opacity:1; stroke-dasharray:0 0" transform="translate(671.3037037037035 1014.403361344538)  rotate(0 65.34814814814816 23.798319327731097)" d="M119.83,0.71C119.83,0.71 92.42,15.82 68.17,0C68.17,0 19.34,21.26 10.5,24.96C6.21,26.55 2.8,29.94 1.12,34.26C-0.56,38.59 -0.34,43.44 1.71,47.6L124.28,39.98C126.39,39.79 128.32,38.64 129.5,36.84C130.69,35.04 131.01,32.79 130.38,30.72L119.83,0.71Z " /><path id="路径 14" fill-rule="evenodd" style="fill:#FFFFFF" transform="translate(481.19999999999993 722.873949579832)  rotate(0 49.0111111111111 59.49579831932774)" opacity="1" d="M56.22 118.99L0 0L54.65 5.13L98.02 99.67L56.22 118.99Z" /><g opacity="1" transform="translate(0 0)  rotate(0 2.97037037037037 2.974789915966387)"><g opacity="1" transform="translate(480.15582747924924 723.0756817524464)  rotate(0 49.31720178912651 58.91255753146689)"><path id="路径 15" fill-rule="evenodd" style="fill:#FFFFFF" transform="translate(0 0)  rotate(0 49.31720178912651 58.91255753146689)" opacity="1" d="M54.99,5.08Z M0,0L56.57,117.83L98.63,98.69L54.99,5.08L0,0Z " /><path  id="路径 15" style="stroke:#995D14; stroke-width:3.24; stroke-opacity:1; stroke-dasharray:0 0" transform="translate(0 0)  rotate(0 49.31720178912651 58.91255753146689)" d="M54.99,5.08Z M0,0L56.57,117.83L98.63,98.69L54.99,5.08L0,0Z " /></g><path id="路径 16" fill-rule="evenodd" style="fill:#FFE7D9" transform="translate(480.1547382582942 741.1096358104056)  rotate(0 47.05023660142679 28.413331431770292)" opacity="1" d="M83.05,47.22C98.64,80.66 93.17,16.06 93.17,16.06L29.22,0L0,32.65C62.26,57.27 67.46,13.78 83.05,47.22Z " /></g><path  id="路径 17" style="stroke:#995D14; stroke-width:3.24; stroke-opacity:1; stroke-dasharray:0 0" transform="translate(481.19999999999993 722.873949579832)  rotate(0 49.0111111111111 59.49579831932774)" d="M54.65,5.13Z M0,0L56.22,118.99L98.02,99.67L54.65,5.13L0,0Z " /><path id="路径 18" fill-rule="evenodd" style="fill:#FF8103" transform="translate(484.1703703703703 794.2689075630252)  rotate(0 50.49629629629629 56.52100840336135)" opacity="1" d="M83.75,0C83.75,0 67.25,35.61 42.72,25.18C42.72,25.18 11.66,73.78 5.31,81.69C-1.33,90.95 -1.78,103.33 4.18,113.04L96.51,45.08C100.86,41.88 102.25,35.96 99.77,31.14L83.75,0Z " /><path  id="路径 18" style="stroke:#995D14; stroke-width:3.24; stroke-opacity:1; stroke-dasharray:0 0" transform="translate(484.1703703703703 794.2689075630252)  rotate(0 50.49629629629629 56.52100840336135)" d="M83.75,0C83.75,0 67.25,35.61 42.72,25.18C42.72,25.18 11.66,73.78 5.31,81.69C-1.33,90.95 -1.78,103.33 4.18,113.04L96.51,45.08C100.86,41.88 102.25,35.96 99.77,31.14L83.75,0Z " /><path id="路径 19" fill-rule="evenodd" style="fill:#FFFFFF" transform="translate(576.2518518518518 401.59663865546224)  rotate(0 111.38888888888887 288.55462184873954)" opacity="1" d="M153.61,294.36C151.14,195.85 142.96,97.56 129.09,0L0,42.9C0,42.9 72.35,320.89 74.37,345.27C76.39,369.65 127.72,577.11 127.72,577.11C127.72,577.11 210.62,576.89 222.78,546.71L153.61,294.36Z " /><path  id="路径 20" style="stroke:#995D14; stroke-width:3.24; stroke-opacity:1; stroke-dasharray:0 0" transform="translate(576.2518518518518 401.59663865546224)  rotate(0 111.38888888888887 288.55462184873954)" d="M153.61,294.36C151.14,195.85 142.96,97.56 129.09,0L0,42.9C0,42.9 72.35,320.89 74.37,345.27C76.39,369.65 127.72,577.11 127.72,577.11C127.72,577.11 210.62,576.89 222.78,546.71L153.61,294.36Z " /><path id="路径 21" fill-rule="evenodd" style="fill:#FFFFFF" transform="translate(347.53333333333336 419.44537815126046)  rotate(0 179.7074074074074 181.46218487394958)" opacity="1" d="M133.04,146.56C430.79,172.19 349.18,0 349.18,0L252.76,14.28L26.54,76.24C4.17,82.71 -7.05,116.49 4.77,141.76L141.95,362.92C141.95,362.92 196.35,363.77 224.01,325.9L133.04,146.56Z " /><g opacity="1" transform="translate(347.3275033715735 419.2815006272273)  rotate(0 179.4175962635286 181.23299219277882)"><g opacity="1" transform="translate(0 0)  rotate(0 179.4175962635286 181.23299219277882)"><path id="路径 22" fill-rule="evenodd" style="fill:#FFFFFF" transform="translate(0 -5.684341886080802e-14)  rotate(0 179.41759626352857 181.23299219277882)" opacity="1" d="M132.83,146.37C430.1,171.97 348.62,0 348.62,0L252.35,14.26L26.49,76.14C4.16,82.61 -7.04,116.35 4.77,141.58L141.72,362.46C141.72,362.46 196.04,363.31 223.65,325.49L132.83,146.37Z " /><path id="路径 22" fill-rule="evenodd" fill="url(#linear_6)" transform="translate(0 -5.684341886080802e-14)  rotate(0 179.41759626352857 181.23299219277882)" opacity="1" d="M132.83,146.37C430.1,171.97 348.62,0 348.62,0L252.35,14.26L26.49,76.14C4.16,82.61 -7.04,116.35 4.77,141.58L141.72,362.46C141.72,362.46 196.04,363.31 223.65,325.49L132.83,146.37Z " /><path id="路径 22" fill-rule="evenodd" fill="url(#linear_7)" transform="translate(0 -5.684341886080802e-14)  rotate(0 179.41759626352857 181.23299219277882)" opacity="1" d="M132.83,146.37C430.1,171.97 348.62,0 348.62,0L252.35,14.26L26.49,76.14C4.16,82.61 -7.04,116.35 4.77,141.58L141.72,362.46C141.72,362.46 196.04,363.31 223.65,325.49L132.83,146.37Z " /><path  id="路径 22" style="stroke:#995D14; stroke-width:3.24; stroke-opacity:1; stroke-dasharray:0 0" transform="translate(0 -5.684341886080802e-14)  rotate(0 179.41759626352857 181.23299219277882)" d="M132.83,146.37C430.1,171.97 348.62,0 348.62,0L252.35,14.26L26.49,76.14C4.16,82.61 -7.04,116.35 4.77,141.58L141.72,362.46C141.72,362.46 196.04,363.31 223.65,325.49L132.83,146.37Z " /></g></g><path  id="路径 25" style="stroke:#995D14; stroke-width:3.24; stroke-opacity:1; stroke-dasharray:0 0" transform="translate(347.53333333333336 419.44537815126046)  rotate(0 179.7074074074074 181.46218487394958)" d="M133.04,146.56C430.79,172.19 349.18,0 349.18,0L252.76,14.28L26.54,76.24C4.17,82.71 -7.05,116.49 4.77,141.76L141.95,362.92C141.95,362.92 196.35,363.77 224.01,325.9L133.04,146.56Z " /><path id="路径 26" fill-rule="evenodd" style="fill:#FF9D3E" transform="translate(546.548148148148 211.21008403361344)  rotate(0 95.05185185185184 123.45378151260505)" opacity="1" d="M76.98,0.02C71.76,-0.84 11.97,25.02 11.97,25.02L5.05,31.95C-7.64,47.99 7.6,235.95 7.6,235.95C14.17,232.46 144.36,266.6 190.1,229.34C190.1,229.34 144.91,11.2 76.98,0.02Z " /><path  id="路径 27" style="stroke:#995D14; stroke-width:3.24; stroke-opacity:1; stroke-dasharray:0 0" transform="translate(546.548148148148 211.21008403361344)  rotate(0 95.05185185185184 123.45378151260505)" d="M76.98,0.02C71.76,-0.84 11.97,25.02 11.97,25.02L5.05,31.95C-7.64,47.99 7.6,235.95 7.6,235.95C14.17,232.46 144.36,266.6 190.1,229.34C190.1,229.34 144.91,11.2 76.98,0.02Z " /><path id="路径 28" fill-rule="evenodd" style="fill:#FFFFFF" transform="translate(291.0962962962962 32.72268907563026)  rotate(0 135.15185185185186 126.42857142857143)" opacity="1" d="M270.3,202.09L149.09,164.01L67.04,73.86C67.04,73.86 57.59,48.59 47.98,40.68C38.37,32.77 7.41,5.83 1.86,0.71C-3.69,-4.42 2.91,19.49 25.32,37.62C25.32,37.62 15.1,56.42 17.26,65.95C19.42,75.47 60.72,113.03 60.72,113.03L122.57,178.83L269.45,252.86L270.3,202.09Z " /><g opacity="1" transform="translate(291.16839452463455 33.21745827554889)  rotate(0 134.7382523219244 125.93444427757541)"><g opacity="1" transform="translate(0 0)  rotate(0 134.73825232192436 125.93444427757541)"><path id="路径 29" fill-rule="evenodd" style="fill:#FFFFFF" transform="translate(0 0)  rotate(0 134.73825232192436 125.93444427757541)" opacity="1" d="M269.48,201.3L148.63,163.37L66.83,73.57C66.83,73.57 57.41,48.4 47.83,40.52C38.25,32.64 7.39,5.81 1.86,0.7C-3.68,-4.41 2.9,19.41 25.24,37.47C25.24,37.47 15.05,56.2 17.21,65.69C19.36,75.17 60.53,112.59 60.53,112.59L122.19,178.14L268.63,251.87L269.48,201.3Z " /><path  id="路径 29" style="stroke:#995D14; stroke-width:3.24; stroke-opacity:1; stroke-dasharray:0 0" transform="translate(0 0)  rotate(0 134.73825232192436 125.93444427757541)" d="M269.48,201.3L148.63,163.37L66.83,73.57C66.83,73.57 57.41,48.4 47.83,40.52C38.25,32.64 7.39,5.81 1.86,0.7C-3.68,-4.41 2.9,19.41 25.24,37.47C25.24,37.47 15.05,56.2 17.21,65.69C19.36,75.17 60.53,112.59 60.53,112.59L122.19,178.14L268.63,251.87L269.48,201.3Z " /></g><path id="路径 30" fill-rule="evenodd" style="fill:#FFE7D9" transform="translate(48.92553133790949 73.46620667496245)  rotate(0 19.02926881234882 28.354933103140134)" opacity="1" d="M6.89,42.19C-9.9,40.87 9.28,56.71 9.28,56.71L32.46,42.19L38.06,7.55L28.47,0C2.49,10.37 23.67,43.51 6.89,42.19Z " /></g><path  id="路径 31" style="stroke:#995D14; stroke-width:3.24; stroke-opacity:1; stroke-dasharray:0 0" transform="translate(291.0962962962962 32.72268907563026)  rotate(0 135.15185185185186 126.42857142857143)" d="M47.98,40.68C38.37,32.77 7.41,5.83 1.86,0.71C-3.69,-4.42 2.91,19.49 25.32,37.62C25.32,37.62 15.1,56.42 17.26,65.95C19.42,75.47 60.72,113.03 60.72,113.03L122.57,178.83L269.45,252.86L270.3,202.09L149.09,164.01L67.04,73.86C67.04,73.86 57.59,48.59 47.98,40.68Z " /><path id="路径 32" fill-rule="evenodd" style="fill:#FF9D3E" transform="translate(359.414814814815 118.99159663865555)  rotate(0 123.27037037037033 107.09243697478995)" opacity="1" d="M116.86,64.89L21.74,0C9.39,16.54 -9.65,35.57 5.75,65.05C12.26,77.49 88,140.94 100.83,148.81C113.67,156.68 245.32,214.18 245.32,214.18L246.54,117.12C210.07,105.92 116.86,64.89 116.86,64.89Z " /><path  id="路径 33" style="stroke:#995D14; stroke-width:3.24; stroke-opacity:1; stroke-dasharray:0 0" transform="translate(359.4148148148148 118.99159663865548)  rotate(0 123.27037037037034 107.09243697478995)" d="M246.54,117.12C210.07,105.92 116.86,64.89 116.86,64.89L21.74,0C9.39,16.54 -9.65,35.57 5.75,65.05C12.26,77.49 88,140.94 100.83,148.81C113.67,156.68 245.32,214.18 245.32,214.18 " /><path id="路径 34" fill-rule="evenodd" style="fill:#FFFFFF" transform="translate(350.5037037037037 118.99159663865548)  rotate(0 25.248148148148147 41.647058823529406)" opacity="1" d="M0,56.29C0,56.29 17.52,79.5 21.59,83.29C21.59,83.29 40.71,19 50.5,13.6L30.16,0C18.1,6.77 0,56.29 0,56.29Z " /><path  id="路径 34" style="stroke:#995D14; stroke-width:3.24; stroke-opacity:1; stroke-dasharray:0 0" transform="translate(350.5037037037037 118.99159663865548)  rotate(0 25.248148148148147 41.647058823529406)" d="M0,56.29C0,56.29 17.52,79.5 21.59,83.29C21.59,83.29 40.71,19 50.5,13.6L30.16,0C18.1,6.77 0,56.29 0,56.29Z " /><path id="路径 35" fill-rule="evenodd" style="fill:#FF8103" transform="translate(365.35555555555555 172.53781512605045)  rotate(0 1.485185185185185 1.4873949579831935)" opacity="1" d="M1.49,0C0.66,0 0,0.67 0,1.49C0,2.31 0.66,2.97 1.49,2.97C2.31,2.97 2.97,2.31 2.97,1.49C2.97,0.67 2.31,0 1.49,0Z " /><path  id="路径 35" style="stroke:#995D14; stroke-width:3.24; stroke-opacity:1; stroke-dasharray:0 0" transform="translate(365.35555555555555 172.53781512605045)  rotate(0 1.485185185185185 1.4873949579831935)" d="M1.49,0C0.66,0 0,0.67 0,1.49C0,2.31 0.66,2.97 1.49,2.97C2.31,2.97 2.97,2.31 2.97,1.49C2.97,0.67 2.31,0 1.49,0Z " /><path id="路径 36" fill-rule="evenodd" style="fill:#FFFFFF" transform="translate(591.1037037037037 365.8991596638656)  rotate(0 28.21851851851852 8.924369747899158)" opacity="1" d="M0,17.85C0,17.85 52.91,14.99 56.44,13.93L53,0L0,3.68L0,17.85Z " /><path  id="路径 36" style="stroke:#995D14; stroke-width:3.24; stroke-opacity:1; stroke-dasharray:0 0" transform="translate(591.1037037037037 365.8991596638656)  rotate(0 28.21851851851852 8.924369747899158)" d="M0,17.85C0,17.85 52.91,14.99 56.44,13.93L53,0L0,3.68L0,17.85Z " /><path id="路径 37"  style="fill:#FFFFFF" transform="translate(525.7555555555556 139.81512605042016)  rotate(0 8.911111111111108 10.411764705882351)" opacity="1" d="M17.82,0C3.88,0.73 -8.56,17.91 7.7,20.82 " /><path  id="路径 37" style="stroke:#995D14; stroke-width:3.24; stroke-opacity:1; stroke-dasharray:0 0" transform="translate(525.7555555555556 139.81512605042016)  rotate(0 8.911111111111108 10.411764705882351)" d="M17.82,0C3.88,0.73 -8.56,17.91 7.7,20.82 " /><path id="路径 38" fill-rule="evenodd" style="fill:#FFE7D9" transform="translate(546.548148148148 151.7142857142857)  rotate(0 8.911111111111108 5.949579831932774)" opacity="0.27" d="M8.91,0C3.99,0 0,2.66 0,5.95C0,9.24 3.99,11.9 8.91,11.9C13.83,11.9 17.82,9.24 17.82,5.95C17.82,2.66 13.83,0 8.91,0Z " /><path id="路径 39"  style="fill:#FFFFFF" transform="translate(543.5777777777777 166.58823529411762)  rotate(0 2.97037037037037 1.4873949579831935)" opacity="1" d="M5.94,0C4.15,1.85 2.1,2.88 0,2.97 " /><path  id="路径 39" style="stroke:#995D14; stroke-width:3.24; stroke-opacity:1; stroke-dasharray:0 0" transform="translate(543.5777777777777 166.58823529411762)  rotate(0 2.97037037037037 1.4873949579831935)" d="M5.94,0C4.15,1.85 2.1,2.88 0,2.97 " /><path  id="路径 40" style="stroke:#995D14; stroke-width:3.24; stroke-opacity:1; stroke-dasharray:0 0" transform="translate(576.2518518518518 160.63865546218486)  rotate(0 2.97037037037037 2.974789915966387)" d="M0,0.79C1.07,-0.04 2.62,-0.24 3.92,0.3C5.22,0.83 6.02,1.99 5.94,3.23C5.85,4.47 4.91,5.54 3.55,5.95 " /><path  id="路径 41" style="stroke:#995D14; stroke-width:3.24; stroke-opacity:1; stroke-dasharray:0 0" transform="translate(582.1925925925924 107.09243697478995)  rotate(0 1.485185185185185 8.924369747899158)" d="M2.97,0C1.01,5.55 -0.01,11.66 0,17.85 " /><path  id="路径 42" style="stroke:#995D14; stroke-width:3.24; stroke-opacity:1; stroke-dasharray:0 0" transform="translate(653.4814814814814 401.59663865546224)  rotate(0 11.88148148148148 0.014873949579831933)" d="M0,0.01C7.9,0.04 15.89,0.04 23.76,0 " /><path  id="路径 43" style="stroke:#995D14; stroke-width:3.24; stroke-opacity:1; stroke-dasharray:0 0" transform="translate(461.3239691245271 552.9310648272011)  rotate(0 10.278980948696358 6.6395965828929775)" d="M20.56,13.28L0,0 " /><path  id="路径 44" style="stroke:#995D14; stroke-width:3.24; stroke-opacity:1; stroke-dasharray:0 0" transform="translate(708.6139695167943 698.80739021262)  rotate(0 9.748995751213442 1.5028557783841734)" d="M19.5,0L0,3.01 " /><path  id="路径 45" style="stroke:#995D14; stroke-width:3.24; stroke-opacity:1; stroke-dasharray:0 0" transform="translate(493.0814814814814 821.0420168067228)  rotate(0 14.85185185185185 5.949579831932774)" d="M7.04,0C13.73,4.72 21.46,8.06 29.7,9.78C19.74,8.77 9.67,9.49 0,11.9 " /><path  id="路径 46" style="stroke:#995D14; stroke-width:3.24; stroke-opacity:1; stroke-dasharray:0 0" transform="translate(695.0666666666667 1008.453781512605)  rotate(0 14.85185185185185 4.462184873949579)" d="M21.18,0L29.7,8.92L0,5.42 " /></g></g></g></g></g></svg>