<svg xmlns="http://www.w3.org/2000/svg" xmlns:xlink="http://www.w3.org/1999/xlink" width="687" height="473" viewBox="0 0 687 473" fill="none"><defs><rect id="path_0" x="0" y="0" width="687" height="473" /><radialGradient id="linear_0" cx="25.00630935251799%" cy="86.02297931034482%" fx="25.00630935251799%" fy="86.02297931034482%" r="0.650739143665508" gradientTransform="translate(0.2500630935251799 0.8602297931034483) scale(0.5215827338129497 1) rotate(18.101002585214133) scale(1 1) translate(-0.2500630935251799 -0.8602297931034483)" ><stop offset="0" stop-color="#CFCFCF" stop-opacity="0.19" /><stop offset="1" stop-color="#D4D4D4" stop-opacity="0.01" /></radialGradient><filter id="filter_4" x="144.54732452522967" y="207.51471684759485" width="184.27460555643472" height="100.89862520029868" filterUnits="userSpaceOnUse" color-interpolation-filters="sRGB"><feFlood flood-opacity="0" result="BackgroundImageFix"/>
          <feColorMatrix in="SourceAlpha" type="matrix" values="0 0 0 0 0 0 0 0 0 0 0 0 0 0 0 0 0 0 127 0"/>
          <feOffset dx="5" dy="5"/>
          <feGaussianBlur stdDeviation="2.5"/>
          <feColorMatrix type="matrix" values="0 0 0 0 0 0 0 0 0 0 0 0 0 0 0 0 0 0 0.03 0"/>
          <feBlend mode="normal" in2="BackgroundImageFix" result="effect1_Shadow"/>
          <feBlend mode="normal" in="SourceGraphic" in2="effect1_Shadow" result="shape"/></filter><radialGradient id="linear_1" cx="22.251%" cy="77.971%" fx="22.251%" fy="77.971%" r="0.4999999999999999" gradientTransform="translate(0.22251 0.77971) scale(0.675 1) rotate(90) scale(1 1) translate(-0.22251 -0.77971)" ><stop offset="0" stop-color="#5AD68C" stop-opacity="0.19" /><stop offset="1" stop-color="#5AD68C" stop-opacity="0" /></radialGradient><filter id="filter_6" x="55.529360535971136" y="-5" width="361.056759394257" height="246.9633125911235" filterUnits="userSpaceOnUse" color-interpolation-filters="sRGB"><feFlood flood-opacity="0" result="BackgroundImageFix"/>
          <feColorMatrix in="SourceAlpha" type="matrix" values="0 0 0 0 0 0 0 0 0 0 0 0 0 0 0 0 0 0 127 0"/>
          <feOffset dx="5" dy="5"/>
          <feGaussianBlur stdDeviation="2.5"/>
          <feColorMatrix type="matrix" values="0 0 0 0 0 0 0 0 0 0 0 0 0 0 0 0 0 0 0.03 0"/>
          <feBlend mode="normal" in2="BackgroundImageFix" result="effect1_Shadow"/>
          <feBlend mode="normal" in="SourceGraphic" in2="effect1_Shadow" result="shape"/></filter><linearGradient id="linear_2" x1="9.653%" y1="88.07300000000001%" x2="97.11%" y2="7.4510000000000005%" gradientUnits="objectBoundingBox"><stop offset="0" stop-color="#2980E3" stop-opacity="1" /><stop offset="1" stop-color="#2A82E4" stop-opacity="0.01" /></linearGradient><radialGradient id="linear_3" cx="22.251%" cy="77.971%" fx="22.251%" fy="77.971%" r="0.4999999999999999" gradientTransform="translate(0.22251 0.77971) scale(0.6745283018867925 1) rotate(90) scale(1 1) translate(-0.22251 -0.77971)" ><stop offset="0" stop-color="#5AD68C" stop-opacity="0.19" /><stop offset="1" stop-color="#5AD68C" stop-opacity="0" /></radialGradient><filter id="filter_10" x="327.5983490665203" y="119.12363992868382" width="275.8001178270804" height="189.28970211920984" filterUnits="userSpaceOnUse" color-interpolation-filters="sRGB"><feFlood flood-opacity="0" result="BackgroundImageFix"/>
          <feColorMatrix in="SourceAlpha" type="matrix" values="0 0 0 0 0 0 0 0 0 0 0 0 0 0 0 0 0 0 127 0"/>
          <feOffset dx="5" dy="5"/>
          <feGaussianBlur stdDeviation="2.5"/>
          <feColorMatrix type="matrix" values="0 0 0 0 0 0 0 0 0 0 0 0 0 0 0 0 0 0 0.03 0"/>
          <feBlend mode="normal" in2="BackgroundImageFix" result="effect1_Shadow"/>
          <feBlend mode="normal" in="SourceGraphic" in2="effect1_Shadow" result="shape"/></filter><radialGradient id="linear_4" cx="22.251%" cy="77.971%" fx="22.251%" fy="77.971%" r="0.4999999999999999" gradientTransform="translate(0.22251 0.77971) scale(1.7023809523809523 1) rotate(90) scale(1 1) translate(-0.22251 -0.77971)" ><stop offset="0" stop-color="#4099FF" stop-opacity="0.26" /><stop offset="1" stop-color="#2A82E4" stop-opacity="0" /></radialGradient><filter id="filter_12" x="6.6321690489139655" y="117.86986578798997" width="115.31702781827711" height="189.28970211920984" filterUnits="userSpaceOnUse" color-interpolation-filters="sRGB"><feFlood flood-opacity="0" result="BackgroundImageFix"/>
          <feColorMatrix in="SourceAlpha" type="matrix" values="0 0 0 0 0 0 0 0 0 0 0 0 0 0 0 0 0 0 127 0"/>
          <feOffset dx="5" dy="5"/>
          <feGaussianBlur stdDeviation="2.5"/>
          <feColorMatrix type="matrix" values="0 0 0 0 0 0 0 0 0 0 0 0 0 0 0 0 0 0 0.03 0"/>
          <feBlend mode="normal" in2="BackgroundImageFix" result="effect1_Shadow"/>
          <feBlend mode="normal" in="SourceGraphic" in2="effect1_Shadow" result="shape"/></filter><linearGradient id="linear_5" x1="9.653%" y1="88.07300000000001%" x2="97.11%" y2="7.4510000000000005%" gradientUnits="objectBoundingBox"><stop offset="0" stop-color="#2980E3" stop-opacity="1" /><stop offset="1" stop-color="#2A82E4" stop-opacity="0.01" /></linearGradient><radialGradient id="linear_6" cx="NaN%" cy="NaN%" fx="NaN%" fy="NaN%" r="0.000001" gradientTransform="translate(NaN NaN) scale(0.38961038961038963 1) rotate(NaN) scale(1 1) translate(NaN NaN)" ></radialGradient><filter id="filter_18" x="107.5" y="141.5" width="472" height="190" filterUnits="userSpaceOnUse" color-interpolation-filters="sRGB"><feFlood flood-opacity="0" result="BackgroundImageFix"/>
          <feColorMatrix in="SourceAlpha" type="matrix" values="0 0 0 0 0 0 0 0 0 0 0 0 0 0 0 0 0 0 127 0"/>
          <feOffset dx="5" dy="5"/>
          <feGaussianBlur stdDeviation="2.5"/>
          <feColorMatrix type="matrix" values="0 0 0 0 0 0 0 0 0 0 0 0 0 0 0 0 0 0 0.03 0"/>
          <feBlend mode="normal" in2="BackgroundImageFix" result="effect1_Shadow"/>
          <feBlend mode="normal" in="SourceGraphic" in2="effect1_Shadow" result="shape"/></filter><radialGradient id="linear_7" cx="0%" cy="0%" fx="0%" fy="0%" r="1" gradientTransform="translate(0 0) scale(1.0000000000000002 1) rotate(90) scale(1 1) translate(0 0)" ><stop offset="0" stop-color="#44D47D" stop-opacity="0.29" /><stop offset="1" stop-color="#5AD68C" stop-opacity="0.01" /></radialGradient><filter id="filter_22" x="379" y="71" width="97" height="97" filterUnits="userSpaceOnUse" color-interpolation-filters="sRGB"><feFlood flood-opacity="0" result="BackgroundImageFix"/>
          <feColorMatrix in="SourceAlpha" type="matrix" values="0 0 0 0 0 0 0 0 0 0 0 0 0 0 0 0 0 0 127 0"/>
          <feOffset dx="5" dy="5"/>
          <feGaussianBlur stdDeviation="2.5"/>
          <feColorMatrix type="matrix" values="0 0 0 0 0 0 0 0 0 0 0 0 0 0 0 0 0 0 0.03 0"/>
          <feBlend mode="normal" in2="BackgroundImageFix" result="effect1_Shadow"/>
          <feBlend mode="normal" in="SourceGraphic" in2="effect1_Shadow" result="shape"/></filter><radialGradient id="linear_8" cx="73.759%" cy="73.71%" fx="73.759%" fy="73.71%" r="0.5000000000000001" gradientTransform="translate(0.73759 0.7371) scale(1.0000000000000002 1) rotate(90) scale(1 1) translate(-0.73759 -0.7371)" ><stop offset="0" stop-color="#2A82E4" stop-opacity="0.29" /><stop offset="1" stop-color="#2A82E4" stop-opacity="0" /></radialGradient><filter id="filter_24" x="401" y="92" width="130" height="130" filterUnits="userSpaceOnUse" color-interpolation-filters="sRGB"><feFlood flood-opacity="0" result="BackgroundImageFix"/>
          <feColorMatrix in="SourceAlpha" type="matrix" values="0 0 0 0 0 0 0 0 0 0 0 0 0 0 0 0 0 0 127 0"/>
          <feOffset dx="5" dy="5"/>
          <feGaussianBlur stdDeviation="2.5"/>
          <feColorMatrix type="matrix" values="0 0 0 0 0 0 0 0 0 0 0 0 0 0 0 0 0 0 0.03 0"/>
          <feBlend mode="normal" in2="BackgroundImageFix" result="effect1_Shadow"/>
          <feBlend mode="normal" in="SourceGraphic" in2="effect1_Shadow" result="shape"/></filter><linearGradient id="linear_9" x1="88.80799999999999%" y1="103.62199999999999%" x2="69.878%" y2="-28.453%" gradientUnits="objectBoundingBox"><stop offset="0" stop-color="#2980E3" stop-opacity="1" /><stop offset="1" stop-color="#2A82E4" stop-opacity="0.01" /></linearGradient><radialGradient id="linear_10" cx="NaN%" cy="NaN%" fx="NaN%" fy="NaN%" r="0.000001" gradientTransform="translate(NaN NaN) scale(0.2088607594936709 1) rotate(NaN) scale(1 1) translate(NaN NaN)" ></radialGradient><filter id="filter_32" x="-5" y="-5" width="326" height="76" filterUnits="userSpaceOnUse" color-interpolation-filters="sRGB"><feFlood flood-opacity="0" result="BackgroundImageFix"/>
          <feColorMatrix in="SourceAlpha" type="matrix" values="0 0 0 0 0 0 0 0 0 0 0 0 0 0 0 0 0 0 127 0"/>
          <feOffset dx="5" dy="5"/>
          <feGaussianBlur stdDeviation="2.5"/>
          <feColorMatrix type="matrix" values="0 0 0 0 0 0 0 0 0 0 0 0 0 0 0 0 0 0 0.03 0"/>
          <feBlend mode="normal" in2="BackgroundImageFix" result="effect1_Shadow"/>
          <feBlend mode="normal" in="SourceGraphic" in2="effect1_Shadow" result="shape"/></filter><rect id="path_1" x="0" y="0" width="316" height="66" /></defs><g opacity="1" transform="translate(0 0)  rotate(0 343.5 236.5)"><mask id="bg-mask-0" fill="white"><use xlink:href="#path_0"></use></mask><g mask="url(#bg-mask-0)" ><g opacity="1" transform="translate(927 207.5)  rotate(0 299.19923344680035 151.70667102394683)"><g id="矩形 1" filter="url(#filter_4)"><path id="矩形 1" fill-rule="evenodd" style="fill:#FFFFFF" transform="translate(149.54732452522967 212.51471684759485)  rotate(0 87.13730277821736 45.44931260014935)" opacity="1" d="M23.76,90.9L149.84,90.9C153.14,90.9 156.05,88.75 157.01,85.6C157.98,82.45 156.78,79.04 154.05,77.19L121.15,54.89C119.09,53.5 117.85,51.17 117.85,48.68L117.85,0L54.54,0L54.54,48.76C54.54,51.21 53.34,53.5 51.34,54.9L19.46,77.26C16.78,79.14 15.63,82.54 16.61,85.65C17.6,88.77 20.49,90.9 23.76,90.9Z " /><path id="矩形 1" fill-rule="evenodd" fill="url(#linear_0)" transform="translate(149.54732452522967 212.51471684759485)  rotate(0 87.13730277821736 45.44931260014935)" opacity="1" d="M23.76,90.9L149.84,90.9C153.14,90.9 156.05,88.75 157.01,85.6C157.98,82.45 156.78,79.04 154.05,77.19L121.15,54.89C119.09,53.5 117.85,51.17 117.85,48.68L117.85,0L54.54,0L54.54,48.76C54.54,51.21 53.34,53.5 51.34,54.9L19.46,77.26C16.78,79.14 15.63,82.54 16.61,85.65C17.6,88.77 20.49,90.9 23.76,90.9Z " /><path  id="矩形 1" style="stroke:#C4C4C4; stroke-width:0.625; stroke-opacity:1; stroke-dasharray:0 0" transform="translate(149.54732452522967 212.51471684759485)  rotate(0 87.13730277821736 45.44931260014935)" d="M23.76,90.9L149.84,90.9C153.14,90.9 156.05,88.75 157.01,85.6C157.98,82.45 156.78,79.04 154.05,77.19L121.15,54.89C119.09,53.5 117.85,51.17 117.85,48.68L117.85,0L54.54,0L54.54,48.76C54.54,51.21 53.34,53.5 51.34,54.9L19.46,77.26C16.78,79.14 15.63,82.54 16.61,85.65C17.6,88.77 20.49,90.9 23.76,90.9Z " /></g><g id="矩形 1" filter="url(#filter_6)"><path id="矩形 1" fill-rule="evenodd" style="fill:#FFFFFF" transform="translate(60.529360535971136 0)  rotate(0 175.5283796971285 118.48165629556175)" opacity="1" d="M7.5,236.96L343.56,236.96C347.7,236.96 351.06,233.6 351.06,229.46L351.06,7.5C351.06,3.36 347.7,0 343.56,0L7.5,0C3.36,0 0,3.36 0,7.5L0,229.46C0,233.6 3.36,236.96 7.5,236.96Z " /><path id="矩形 1" fill-rule="evenodd" fill="url(#linear_1)" transform="translate(60.529360535971136 0)  rotate(0 175.5283796971285 118.48165629556175)" opacity="1" d="M7.5,236.96L343.56,236.96C347.7,236.96 351.06,233.6 351.06,229.46L351.06,7.5C351.06,3.36 347.7,0 343.56,0L7.5,0C3.36,0 0,3.36 0,7.5L0,229.46C0,233.6 3.36,236.96 7.5,236.96Z " /><rect  id="矩形 1" style="stroke:#C4C4C4; stroke-width:0.625; stroke-opacity:1; stroke-dasharray:0 0" transform="translate(60.529360535971136 0)  rotate(0 175.5283796971285 118.48165629556175)" x="0.3125" y="0.3125" rx="7.1875"  width="350.431759394257" height="236.3383125911235" /></g><path id="路径 3" style="stroke:url(#linear_2); stroke-width:1.62; stroke-opacity:100; stroke-dasharray:0 0" transform="translate(96.63216904891397 58)  rotate(0 208.03287561163768 53.342862663602894)" d="M0,76.68C73.83,62.54 128.7,124.87 205.24,101.3C281.78,77.73 310.91,13.83 370.52,2.83C388.52,-0.49 403.67,-0.57 416.07,0.95 " /><g id="矩形 1" filter="url(#filter_10)"><path id="矩形 1" fill-rule="evenodd" style="fill:#FFFFFF" transform="translate(332.5983490665203 124.12363992868382)  rotate(0 132.90005891354016 89.64485105960492)" opacity="1" d="M7.5,179.29L258.3,179.29C262.44,179.29 265.8,175.93 265.8,171.79L265.8,7.5C265.8,3.36 262.44,0 258.3,0L7.5,0C3.36,0 0,3.36 0,7.5L0,171.79C0,175.93 3.36,179.29 7.5,179.29Z " /><path id="矩形 1" fill-rule="evenodd" fill="url(#linear_3)" transform="translate(332.5983490665203 124.12363992868382)  rotate(0 132.90005891354016 89.64485105960492)" opacity="1" d="M7.5,179.29L258.3,179.29C262.44,179.29 265.8,175.93 265.8,171.79L265.8,7.5C265.8,3.36 262.44,0 258.3,0L7.5,0C3.36,0 0,3.36 0,7.5L0,171.79C0,175.93 3.36,179.29 7.5,179.29Z " /><rect  id="矩形 1" style="stroke:#C4C4C4; stroke-width:0.625; stroke-opacity:1; stroke-dasharray:0 0" transform="translate(332.5983490665203 124.12363992868382)  rotate(0 132.90005891354016 89.64485105960492)" x="0.3125" y="0.3125" rx="7.1875"  width="265.1751178270803" height="178.66470211920984" /></g><g id="矩形 1" filter="url(#filter_12)"><path id="矩形 1" fill-rule="evenodd" style="fill:#FFFFFF" transform="translate(11.632169048913966 122.86986578798997)  rotate(0 52.658513909138556 89.64485105960492)" opacity="1" d="M7.5,179.29L97.82,179.29C101.96,179.29 105.32,175.93 105.32,171.79L105.32,7.5C105.32,3.36 101.96,0 97.82,0L7.5,0C3.36,0 0,3.36 0,7.5L0,171.79C0,175.93 3.36,179.29 7.5,179.29Z " /><path id="矩形 1" fill-rule="evenodd" fill="url(#linear_4)" transform="translate(11.632169048913966 122.86986578798997)  rotate(0 52.658513909138556 89.64485105960492)" opacity="1" d="M7.5,179.29L97.82,179.29C101.96,179.29 105.32,175.93 105.32,171.79L105.32,7.5C105.32,3.36 101.96,0 97.82,0L7.5,0C3.36,0 0,3.36 0,7.5L0,171.79C0,175.93 3.36,179.29 7.5,179.29Z " /><rect  id="矩形 1" style="stroke:#C4C4C4; stroke-width:0.625; stroke-opacity:1; stroke-dasharray:0 0" transform="translate(11.632169048913966 122.86986578798997)  rotate(0 52.658513909138556 89.64485105960492)" x="0.3125" y="0.3125" rx="7.1875"  width="104.69202781827711" height="178.66470211920984" /></g><path id="圆形 1" fill-rule="evenodd" style="fill:#2A82E4" transform="translate(6.6321690489139655 244)  rotate(0 19 18.999999999999993)" opacity="1" d="M19,0C8.51,0 0,8.51 0,19C0,29.49 8.51,38 19,38C29.49,38 38,29.49 38,19C38,8.51 29.49,0 19,0Z " /><path id="路径 3" style="stroke:url(#linear_5); stroke-width:1.62; stroke-opacity:100; stroke-dasharray:0 0" transform="translate(0 44.661719371124946)  rotate(0 296.5004586293052 108.9191403144374)" d="M20.04,217.84C-18.37,203.34 8.12,154.19 20.04,144.34C39.04,128.62 77.13,102.34 155.13,116.34C233.13,130.34 247.98,193.27 339.59,156.79C431.2,120.31 466.06,21.4 537.4,4.38C559.47,-0.89 577.97,-0.88 593,1.65 " /></g><g id="矩形 1" filter="url(#filter_18)"><path id="矩形 1" fill-rule="evenodd" fill="url(#linear_6)" transform="translate(112.5 146.5)  rotate(0 231 90)" opacity="1" d="M7.5,180L454.5,180C458.64,180 462,176.64 462,172.5L462,7.5C462,3.36 458.64,0 454.5,0L7.5,0C3.36,0 0,3.36 0,7.5L0,172.5C0,176.64 3.36,180 7.5,180Z " /><path id="矩形 1" fill-rule="evenodd" style="fill:#FFFFFF" transform="translate(112.5 146.5)  rotate(0 231 90)" opacity="1" d="M7.5,180L454.5,180C458.64,180 462,176.64 462,172.5L462,7.5C462,3.36 458.64,0 454.5,0L7.5,0C3.36,0 0,3.36 0,7.5L0,172.5C0,176.64 3.36,180 7.5,180Z " /><rect  id="矩形 1" style="stroke:#C4C4C4; stroke-width:0.625; stroke-opacity:1; stroke-dasharray:0 0" transform="translate(112.5 146.5)  rotate(0 231 90)" x="0.3125" y="0.3125" rx="7.1875"  width="461.375" height="179.375" /></g><path id="圆形 1" fill-rule="evenodd" style="fill:#2A82E4" transform="translate(478 308)  rotate(0 19 18.999999999999993)" opacity="1" d="M19,0C8.51,0 0,8.51 0,19C0,29.49 8.51,38 19,38C29.49,38 38,29.49 38,19C38,8.51 29.49,0 19,0Z " /><g id="矩形 1" filter="url(#filter_22)"><path id="矩形 1" fill-rule="evenodd" style="fill:#FFFFFF" transform="translate(384 76)  rotate(0 43.49999999999999 43.5)" opacity="1" d="M23,87L64,87C76.7,87 87,76.7 87,64L87,23C87,10.3 76.7,0 64,0L23,0C10.3,0 0,10.3 0,23L0,64C0,76.7 10.3,87 23,87Z " /><path id="矩形 1" fill-rule="evenodd" fill="url(#linear_7)" transform="translate(384 76)  rotate(0 43.49999999999999 43.5)" opacity="1" d="M23,87L64,87C76.7,87 87,76.7 87,64L87,23C87,10.3 76.7,0 64,0L23,0C10.3,0 0,10.3 0,23L0,64C0,76.7 10.3,87 23,87Z " /><rect  id="矩形 1" style="stroke:#C4C4C4; stroke-width:0.625; stroke-opacity:1; stroke-dasharray:0 0" transform="translate(384 76)  rotate(0 43.49999999999999 43.5)" x="0.3125" y="0.3125" rx="22.6875"  width="86.37499999999999" height="86.375" /></g><g id="矩形 1" filter="url(#filter_24)"><path id="矩形 1" fill-rule="evenodd" style="fill:#FFFFFF" transform="translate(406 97)  rotate(0 59.999999999999986 60)" opacity="1" d="M36,120L84,120C103.88,120 120,103.88 120,84L120,36C120,16.12 103.88,0 84,0L14,0C6.27,0 0,6.27 0,14L0,84C0,103.88 16.12,120 36,120Z " /><path id="矩形 1" fill-rule="evenodd" fill="url(#linear_8)" transform="translate(406 97)  rotate(0 59.999999999999986 60)" opacity="1" d="M36,120L84,120C103.88,120 120,103.88 120,84L120,36C120,16.12 103.88,0 84,0L14,0C6.27,0 0,6.27 0,14L0,84C0,103.88 16.12,120 36,120Z " /><rect  id="矩形 1" style="stroke:#C4C4C4; stroke-width:0.625; stroke-opacity:1; stroke-dasharray:0 0" transform="translate(406 97)  rotate(0 59.999999999999986 60)" x="0.3125" y="0.3125" rx="0"  width="119.37499999999997" height="119.375" /></g><path id="圆形 2" fill-rule="evenodd" style="fill:#2A82E4" transform="translate(488 179)  rotate(0 6 6)" opacity="1" d="M6,0C2.69,0 0,2.69 0,6C0,9.31 2.69,12 6,12C9.31,12 12,9.31 12,6C12,2.69 9.31,0 6,0Z " /><path  id="圆形 2" style="stroke:#FFFFFF; stroke-width:3; stroke-opacity:1; stroke-dasharray:0 0" transform="translate(488 179)  rotate(0 6 6)" d="M6,0C2.69,0 0,2.69 0,6C0,9.31 2.69,12 6,12C9.31,12 12,9.31 12,6C12,2.69 9.31,0 6,0Z " /><path  id="圆形 2" style="stroke:#2A82E4; stroke-width:1; stroke-opacity:1; stroke-dasharray:0 0" transform="translate(488 179)  rotate(0 6 6)" d="M6,0C2.69,0 0,2.69 0,6C0,9.31 2.69,12 6,12C9.31,12 12,9.31 12,6C12,2.69 9.31,0 6,0Z " /><path id="路径 23" style="stroke:url(#linear_9); stroke-width:1.62; stroke-opacity:100; stroke-dasharray:0 0" transform="translate(191 97)  rotate(0 178.5 114.49999999999986)" d="M357,163.95C357,83.46 213.69,95.94 213.69,149.4C213.69,181.04 237.61,201.41 260.31,213.62C315.48,207.06 357,188.36 357,163.95Z M117.93,0C63.69,24.59 -62.86,81.98 37.64,163.95C94.37,210.22 188.81,222.12 260.31,213.62 M260.31,213.62C280.78,224.63 300.26,229 300.26,229 " /><path id="文本 1" fill-rule="evenodd" style="fill:#FF8A8A" transform="translate(280 198)  rotate(0 64 38.99999999999999)" opacity="1" d="M23.41 60.19L17.75 76.67L0 76.67L28.3 0L45.47 0L73.86 76.67L56.02 76.67L50.36 60.19L23.41 60.19ZM111.12 70.19L111.69 70.19L111.69 76.67L128 76.67L128 40C128 40 128 33.62 125.12 28.76C125.12 28.76 122.24 23.9 116.97 21.19C116.97 21.19 111.69 18.48 104.88 18.48C104.88 18.48 90.59 18.48 81.28 29.81L91.84 37.81C91.84 37.81 96.73 31.9 102.77 31.9C102.77 31.9 106.99 31.9 109.34 34.14C109.34 34.14 111.69 36.38 111.69 40.57L111.69 42L106.51 42C106.51 42 98.26 42 92.07 44.43C92.07 44.43 85.89 46.86 82.53 51.33C82.53 51.33 79.17 55.81 79.17 61.71C79.17 61.71 79.17 69.33 84.11 73.67C84.11 73.67 89.05 78 96.63 78C96.63 78 101.72 78 105.55 76C105.55 76 109.39 74 111.12 70.19ZM36.64 21.9L37.22 21.9L44.99 44.57L28.78 44.57L36.64 21.9ZM98.84 56.38C98.84 56.38 101.91 55.14 108.14 55.14L111.69 55.14L111.69 57.43C111.69 57.43 111.69 60.86 108.86 62.81C108.86 62.81 106.03 64.76 101.72 64.76C101.72 64.76 98.93 64.76 97.35 63.57C97.35 63.57 95.77 62.38 95.77 60.57C95.77 60.57 95.77 57.62 98.84 56.38Z" /><g opacity="1" transform="translate(81 288)  rotate(0 158 33)"><g id="undefined" filter="url(#filter_32)"> fill="url(#linear_10)" opacity="1" transform="translate(0 0)  rotate(0 158 33)" stroke="#C4C4C4" stroke-width="0.625" stroke-opacity="1"<rect fill="url(#linear_10)" opacity="1" transform="translate(0 0)  rotate(0 158 33)" stroke="#C4C4C4" stroke-width="0.625" stroke-opacity="1" x="0" y="0" width="316" height="66" rx="12" /> fill="#FFFFFF" opacity="1" transform="translate(0 0)  rotate(0 158 33)" stroke="#C4C4C4" stroke-width="0.625" stroke-opacity="1"<rect fill="url(#linear_10)" opacity="1" transform="translate(0 0)  rotate(0 158 33)" stroke="#C4C4C4" stroke-width="0.625" stroke-opacity="1"<rect fill="url(#linear_10)" opacity="1" transform="translate(0 0)  rotate(0 158 33)" stroke="#C4C4C4" stroke-width="0.625" stroke-opacity="1" x="0" y="0" width="316" height="66" rx="12" /> fill="#FFFFFF" opacity="1" transform="translate(0 0)  rotate(0 158 33)" stroke="#C4C4C4" stroke-width="0.625" stroke-opacity="1" x="0" y="0" width="316" height="66" rx="12" /></g><mask id="bg-mask-1" fill="white"><use xlink:href="#path_1"></use></mask><g mask="url(#bg-mask-1)" ><path id="矩形1" fill-rule="evenodd" style="fill:#FCB93D" transform="translate(8 8)  rotate(0 25 25)" opacity="1" d="M6,50L50,50L50,0L6,0C2.69,0 0,2.69 0,6L0,44C0,47.31 2.69,50 6,50Z " /><path id="矩形2" fill-rule="evenodd" style="fill:#FDC55D" transform="translate(58 8)  rotate(0 25 25)" opacity="1" d="M0,50L50,50L50,0L0,0L0,50Z " /><path id="矩形3" fill-rule="evenodd" style="fill:#FDD07E" transform="translate(108 8)  rotate(0 25 25)" opacity="1" d="M0,50L50,50L50,0L0,0L0,50Z " /><path id="矩形4" fill-rule="evenodd" style="fill:#FEDC9E" transform="translate(158 8)  rotate(0 25 25)" opacity="1" d="M0,50L50,50L50,0L0,0L0,50Z " /><path id="矩形5" fill-rule="evenodd" style="fill:#FEE8BE" transform="translate(208 8)  rotate(0 25 25)" opacity="1" d="M0,50L50,50L50,0L0,0L0,50Z " /><path id="矩形6" fill-rule="evenodd" style="fill:#FFF3DF" transform="translate(258 8)  rotate(0 25 25)" opacity="1" d="M0,50L44,50C47.31,50 50,47.31 50,44L50,6C50,2.69 47.31,0 44,0L0,0L0,50Z " /></g></g></g></g></svg>