<svg xmlns="http://www.w3.org/2000/svg" xmlns:xlink="http://www.w3.org/1999/xlink" width="145" height="26" viewBox="0 0 145 26" fill="none"><defs><linearGradient id="linear_0" x1="56.489999999999995%" y1="83.94500000000001%" x2="82.08%" y2="13.74%" gradientUnits="objectBoundingBox"><stop offset="0" stop-color="#A6D3FD" stop-opacity="1" /><stop offset="1" stop-color="#CFE6FC" stop-opacity="1" /></linearGradient><linearGradient id="linear_1" x1="90.197%" y1="8.48%" x2="71.738%" y2="81.962%" gradientUnits="objectBoundingBox"><stop offset="0" stop-color="#5395FD" stop-opacity="1" /><stop offset="1" stop-color="#9ECDFD" stop-opacity="1" /></linearGradient></defs><g opacity="1" transform="translate(0.68798828125 -0.0000015282234926417004)  rotate(0 72 12.5)"><path id="并集" fill-rule="evenodd" style="fill:#000000" transform="translate(27.499174240927005 5.13793907803407)  rotate(0 40.24968880628773 7.459266881158847)" opacity="1" d="M66.71 1.67C66.71 2.59 67.44 3.34 68.34 3.34C69.23 3.34 69.96 2.59 69.96 1.67C69.96 0.75 69.23 0 68.34 0C67.44 0 66.71 0.75 66.71 1.67ZM16.61 14.79L13.99 14.79L13.99 0.72L16.61 0.72L16.61 14.79ZM38.42 14.79L41.02 14.79L41.02 0.72L38.42 0.72L38.42 4.79C38.41 4.78 38.4 4.77 38.38 4.77C38.38 4.77 37.19 4.12 35.68 4.12C35.68 4.12 34.18 4.12 32.99 4.77C32.99 4.77 31.79 5.41 31.11 6.64C31.11 6.64 30.42 7.86 30.42 9.52C30.42 9.52 30.42 11.17 31.11 12.39C31.11 12.39 31.79 13.61 32.99 14.26C32.99 14.26 34.18 14.92 35.68 14.92C35.68 14.92 37.19 14.92 38.38 14.26L38.42 14.24L38.42 14.79ZM10.38 13.61C8.77 14.9 6.32 14.9 6.32 14.9C4.45 14.9 3.01 14.03 3.01 14.03C1.58 13.17 0.79 11.61 0.79 11.61C0 10.05 0 8.07 0 8.07C0 6.08 0.79 4.52 0.79 4.52C1.58 2.96 3 2.1 3 2.1C4.43 1.23 6.32 1.23 6.32 1.23C8.77 1.23 10.38 2.52 10.38 2.52C10.8 2.86 11.14 3.25 11.42 3.66L9.24 5.12C8.85 4.61 8.45 4.33 8.45 4.33C7.55 3.7 6.29 3.7 6.29 3.7C5.25 3.7 4.41 4.23 4.41 4.23C3.58 4.77 3.11 5.75 3.11 5.75C2.65 6.74 2.65 8.07 2.65 8.07C2.65 9.39 3.11 10.37 3.11 10.37C3.58 11.36 4.41 11.9 4.41 11.9C5.25 12.43 6.29 12.43 6.29 12.43C7.55 12.43 8.45 11.8 8.45 11.8C8.79 11.56 9.06 11.26 9.27 10.97L11.61 12.19C11.01 13.1 10.38 13.61 10.38 13.61ZM25.67 8.32C25.67 8.32 24.52 7.94 23.43 7.94C23.43 7.94 22.21 7.94 21.2 8.38C21.2 8.38 20.19 8.82 19.6 9.62C19.6 9.62 19 10.43 19 11.51C19 11.51 19 12.56 19.53 13.32C19.53 13.32 20.05 14.08 20.95 14.48C20.95 14.48 21.83 14.87 22.94 14.87C22.94 14.87 25.21 14.87 25.93 14.15L25.93 14.62L28.43 14.62L28.43 8.32C28.43 8.32 28.43 6.02 27.24 4.78C27.24 4.78 26.05 3.53 23.93 3.53C23.93 3.53 22.36 3.53 21.18 4.23C21.18 4.23 20.01 4.93 19.45 6.14L21.45 7.33C21.45 7.33 22.15 5.92 23.69 5.92C23.69 5.92 25.61 5.92 25.67 8.32ZM73.51 7.36C73.51 7.36 74.22 5.94 75.75 5.94C75.75 5.94 77.67 5.94 77.73 8.34C77.73 8.34 76.58 7.96 75.49 7.96C75.49 7.96 74.28 7.96 73.27 8.4C73.27 8.4 72.26 8.84 71.66 9.64C71.66 9.64 71.07 10.45 71.07 11.54C71.07 11.54 71.07 12.58 71.59 13.34C71.59 13.34 72.12 14.1 73.02 14.5C73.02 14.5 73.89 14.9 75.01 14.9C75.01 14.9 77.27 14.9 77.99 14.17L77.99 14.65L80.5 14.65L80.5 8.34C80.5 8.34 80.5 6.04 79.31 4.8C79.31 4.8 78.12 3.56 75.99 3.56C75.99 3.56 74.42 3.56 73.25 4.26C73.25 4.26 72.08 4.96 71.51 6.17L73.51 7.36ZM54.93 14.79L57.55 14.79L57.55 8.69C57.55 8.69 57.55 7.97 58.21 7.23C58.21 7.23 58.88 6.49 59.99 6.49C59.99 6.49 62.35 6.24 62.35 9.14L62.35 14.79L64.94 14.79L64.94 8.83C64.94 7.73 64.94 6.34 63.7 5.28C63.7 5.28 62.56 4.11 60.78 4.11C60.78 4.11 57.98 4.11 57.55 5.74L57.55 4.25L54.93 4.25L54.93 14.79ZM50.67 14.26C49.48 14.92 47.98 14.92 47.98 14.92C46.47 14.92 45.28 14.26 45.28 14.26C44.08 13.61 43.4 12.39 43.4 12.39C42.71 11.17 42.71 9.52 42.71 9.52C42.71 7.86 43.4 6.64 43.4 6.64C44.08 5.41 45.28 4.77 45.28 4.77C46.47 4.12 47.98 4.12 47.98 4.12C49.48 4.12 50.67 4.77 50.67 4.77C51.87 5.41 52.56 6.64 52.56 6.64C53.24 7.86 53.24 9.52 53.24 9.52C53.24 11.17 52.56 12.39 52.56 12.39C51.87 13.61 50.67 14.26 50.67 14.26ZM69.69 4.25L67.08 4.25L67.08 14.79L69.69 14.79L69.69 4.25ZM35.68 12.6C34.31 12.6 33.07 11.73 33.07 9.52C33.07 7.31 34.31 6.44 35.68 6.44C37.81 6.44 38.3 7.88 38.3 9.52C38.3 11.15 37.81 12.6 35.68 12.6ZM47.98 6.44C46.88 6.44 46.12 7.23 46.12 7.23C45.36 8.02 45.36 9.52 45.36 9.52C45.36 11.02 46.12 11.81 46.12 11.81C46.88 12.6 47.98 12.6 47.98 12.6C49.07 12.6 49.83 11.81 49.83 11.81C50.59 11.02 50.59 9.52 50.59 9.52C50.59 8.02 49.83 7.23 49.83 7.23C49.07 6.44 47.98 6.44 47.98 6.44ZM22.38 10.35C22.38 10.35 22.92 9.99 23.91 9.99C23.91 9.99 24.66 9.99 25.67 10.24L25.67 10.65C25.67 10.65 25.67 11.59 24.98 12.13C24.98 12.13 24.29 12.66 23.39 12.66C23.39 12.66 22.7 12.66 22.26 12.33C22.26 12.33 21.83 11.99 21.83 11.39C21.83 11.39 21.83 10.72 22.38 10.35ZM73.9 11.41C73.9 11.41 73.9 10.74 74.44 10.38C74.44 10.38 74.98 10.01 75.98 10.01C75.98 10.01 76.72 10.01 77.73 10.26L77.73 10.68C77.73 10.68 77.73 11.62 77.05 12.15C77.05 12.15 76.36 12.69 75.45 12.69C75.45 12.69 74.76 12.69 74.33 12.35C74.33 12.35 73.9 12.02 73.9 11.41Z" /><g opacity="1" transform="translate(-0.6591232141598198 0)  rotate(0 12.307060658115875 12.620001779518377)"><path id="路径 16" fill-rule="evenodd" fill="url(#linear_0)" transform="translate(1.188291353878185 1.2180491436190433)  rotate(-6.503452555157616 11.119003863871743 11.401952635899335)" opacity="1" d="M0.76 13.29C-0.25 12.25 -0.25 10.56 0.76 9.52L9.28 0.78C10.3 -0.26 11.94 -0.26 12.96 0.78L21.48 9.52C22.49 10.56 22.49 12.25 21.48 13.29L12.96 22.02C11.94 23.06 10.3 23.06 9.28 22.02L0.76 13.29Z" /><path id="路径 15" fill-rule="evenodd" fill="url(#linear_1)" transform="translate(1.174535092490487 1.7224933078878195)  rotate(-6.5 6.8305435195434505 11.037221277525697)" opacity="1" d="M13.11,0.94L12.96,0.78C11.94,-0.26 10.3,-0.26 9.28,0.78L0.76,9.52C-0.25,10.56 -0.25,12.25 0.76,13.29L9.34,22.07L13.62,3.04C13.76,2.24 13.54,1.5 13.11,0.94Z " /></g><path id="路径 2" fill-rule="evenodd" style="fill:#000000" transform="translate(113.52712315077952 5.361400238844367)  rotate(0 14.798758697157995 7.279163932365763)" opacity="1" d="M8.11 14.56L8.11 7.22L13.9 7.22L13.9 4.91L8.11 4.91L8.11 0L5.79 0L5.79 4.91L0 4.91L0 7.22L5.79 7.22L5.79 14.56L8.11 14.56ZM28.36 5.22C29 4.91 29.63 3.63 28.17 3.64L28.37 2.78C28.37 2.78 26.66 2.4 25.69 2.27C26.23 2.11 26.74 1.96 27.15 1.83C28.1 1.57 28.15 0.13 26.92 0.09L17.07 0.09L17.07 1.29L17.67 1.29L17.6 2.05C17.6 2.05 18.84 2.19 19.71 2.33C18.57 2.55 16.77 2.8 16.77 2.8L16.88 3.64L16.37 3.64L16.37 4.71L16.88 4.71L16.7 5.53L17.51 5.77C17.06 5.9 16.59 6.01 16.1 6.11L16.29 7L15.88 7L15.88 9.66L17.28 9.66L17.28 8.29L28.04 8.29L28.04 9.66L29.46 9.66L29.46 7L29 7L29.24 6.16L27.37 5.67C27.75 5.51 28.09 5.35 28.36 5.22ZM25.25 1.29L18.66 1.29L22.82 1.87C23.54 1.73 24.35 1.53 25.25 1.29ZM18.13 3.64C20.08 3.4 21.43 3.04 22.72 2.78C22.72 2.78 26.75 3.64 27.13 3.64L22.78 3.64L22.78 4.71L23.27 4.71L23.08 5.58L23.87 5.79C23.5 5.89 23.12 5.99 22.72 6.08L22.9 7L22.02 7L22.29 6.16L20.84 5.71C21.17 5.54 21.5 5.36 21.76 5.2C22.37 4.91 22.6 3.63 21.28 3.64L18.13 3.64ZM20.35 4.71C19.99 4.91 19.62 5.09 19.26 5.24L17.45 4.71L20.35 4.71ZM25.12 5.08C24.91 5.01 24.68 4.95 24.45 4.89C24.22 4.83 24 4.77 23.79 4.71L27.05 4.71C26.85 4.78 26.72 4.83 26.66 4.87L25.69 5.22L25.12 5.08ZM25.75 6.3C26.59 6.53 27.4 6.76 28.18 7L23.62 7C24.26 6.81 24.97 6.58 25.75 6.3ZM19.41 6.35L21.5 7L17.39 7C18.15 6.79 18.83 6.58 19.41 6.35ZM15.74 13.11L15.74 14.45L29.6 14.45L29.6 13.11L27.49 13.11L27.49 8.72L17.8 8.72L17.8 13.11L15.74 13.11ZM25.99 10.21L19.34 10.21L19.34 9.71L25.99 9.71L25.99 10.21ZM19.34 11.19L25.99 11.19L25.99 11.66L19.34 11.66L19.34 11.19ZM19.34 12.68L25.99 12.68L25.99 13.11L19.34 13.11L19.34 12.68Z" /></g></svg>