<svg xmlns="http://www.w3.org/2000/svg" xmlns:xlink="http://www.w3.org/1999/xlink" width="300" height="50" viewBox="0 0 300 50" fill="none"><defs><linearGradient id="linear_0" x1="0%" y1="17.698%" x2="100%" y2="100%" gradientUnits="objectBoundingBox"><stop offset="0" stop-color="#FFB963" stop-opacity="1" /><stop offset="0.9934" stop-color="#FF8A8A" stop-opacity="1" /></linearGradient></defs><g opacity="1" transform="translate(0 0)  rotate(0 150 25)"><path id="文本 1" fill-rule="evenodd" style="fill:#000000" transform="translate(49.19711545016516 11.927913379662403)  rotate(0 125.17710696500313 13.61111111111112)" opacity="1" d="M123.95 0.68C123.95 0.68 123.26 0 122.08 0C122.08 0 120.92 0 120.25 0.68C120.25 0.68 119.57 1.36 119.57 2.51C119.57 2.51 119.57 3.66 120.25 4.34C120.25 4.34 120.92 5.02 122.08 5.02C122.08 5.02 123.26 5.02 123.95 4.34C123.95 4.34 124.64 3.66 124.64 2.51C124.64 2.51 124.64 1.36 123.95 0.68ZM217.97 0.68C217.97 0.68 217.28 0 216.1 0C216.1 0 214.94 0 214.27 0.68C214.27 0.68 213.59 1.36 213.59 2.51C213.59 2.51 213.59 3.66 214.27 4.34C214.27 4.34 214.94 5.02 216.1 5.02C216.1 5.02 217.28 5.02 217.97 4.34C217.97 4.34 218.65 3.66 218.65 2.51C218.65 2.51 218.65 1.36 217.97 0.68ZM7.18 13.11C7.18 13.11 8.65 13.52 9.4 13.84C9.4 13.84 10.15 14.16 10.44 14.52C10.44 14.52 10.73 14.88 10.73 15.43C10.73 15.43 10.73 16.22 9.92 16.71C9.92 16.71 9.11 17.2 7.74 17.2C7.74 17.2 6.41 17.2 5.39 16.53C5.39 16.53 4.36 15.86 3.88 14.57L0 16.36C0 16.36 0.96 18.56 2.98 19.9C2.98 19.9 4.99 21.24 7.71 21.24C7.71 21.24 9.93 21.24 11.66 20.5C11.66 20.5 13.38 19.76 14.34 18.38C14.34 18.38 15.31 17.01 15.31 15.19C15.31 15.19 15.31 13.23 14.32 12.06C14.32 12.06 13.33 10.88 12.03 10.33C12.03 10.33 10.73 9.78 8.82 9.28C8.82 9.28 7.33 8.87 6.59 8.56C6.59 8.56 5.86 8.25 5.56 7.88C5.56 7.88 5.26 7.51 5.26 6.94C5.26 6.94 5.26 6.22 6.03 5.73C6.03 5.73 6.8 5.24 7.96 5.24C7.96 5.24 9.18 5.24 10.05 5.81C10.05 5.81 10.92 6.39 11.55 7.7L15.4 5.91C15.4 5.91 13.16 1.2 8 1.2C8 1.2 5.98 1.2 4.3 1.96C4.3 1.96 2.63 2.73 1.65 4.08C1.65 4.08 0.67 5.43 0.67 7.15C0.67 7.15 0.67 9.09 1.66 10.27C1.66 10.27 2.65 11.46 3.94 12.01C3.94 12.01 5.23 12.56 7.18 13.11ZM180.97 6.06C182.16 8.25 182.16 11.22 182.16 11.22C182.16 14.19 180.93 16.37 180.93 16.37C179.7 18.56 177.36 19.73 177.36 19.73C175.02 20.91 171.77 20.91 171.77 20.91L165.21 20.91L165.21 1.53L172.18 1.53C175.31 1.53 177.55 2.7 177.55 2.7C179.79 3.88 180.97 6.06 180.97 6.06ZM47.36 16.19L47.36 2.44L51.7 2.44L51.7 6.43L55.41 6.43L55.41 10.5L51.7 10.5L51.7 15.52C51.7 16.24 52.13 16.64 52.13 16.64C52.56 17.03 53.36 17.03 53.36 17.03C54.23 17.03 55.12 16.77 55.12 16.77L55.12 20.84C53.72 21.24 52.3 21.24 52.3 21.24C49.91 21.24 48.63 19.94 48.63 19.94C47.36 18.63 47.36 16.19 47.36 16.19ZM109.74 2.44L109.74 16.19C109.74 16.19 109.74 18.63 111.02 19.94C111.02 19.94 112.29 21.24 114.68 21.24C114.68 21.24 116.1 21.24 117.5 20.84L117.5 16.77C117.5 16.77 116.61 17.03 115.74 17.03C115.74 17.03 114.95 17.03 114.51 16.64C114.51 16.64 114.08 16.24 114.08 15.52L114.08 10.5L117.79 10.5L117.79 6.43L114.08 6.43L114.08 2.44L109.74 2.44ZM177.58 11.22C177.58 11.22 177.58 13.8 176.06 15.27C176.06 15.27 174.54 16.74 171.79 16.74L169.69 16.74L169.69 5.69L171.98 5.69C171.98 5.69 174.66 5.69 176.12 7.16C176.12 7.16 177.58 8.64 177.58 11.22ZM39.39 21.24C39.39 21.24 41.08 21.24 42.45 20.64C42.45 20.64 43.83 20.05 44.61 18.99C44.61 18.99 45.39 17.94 45.39 16.6C45.39 16.6 45.39 13.16 40.33 12.03C40.33 12.03 38.84 11.72 38.29 11.41C38.29 11.41 37.75 11.1 37.75 10.6C37.75 10.6 37.75 10.14 38.14 9.87C38.14 9.87 38.52 9.59 39.27 9.59C39.27 9.59 39.99 9.59 40.68 10.11C40.68 10.11 41.37 10.62 41.78 11.51L45.35 10.05C45.35 10.05 44.67 8.23 43.01 7.16C43.01 7.16 41.34 6.1 39.2 6.1C39.2 6.1 37.44 6.1 36.11 6.66C36.11 6.66 34.79 7.22 34.05 8.25C34.05 8.25 33.32 9.28 33.32 10.67C33.32 10.67 33.32 12.53 34.79 13.67C34.79 13.67 36.26 14.81 38.88 15.41C38.88 15.41 39.92 15.62 40.44 15.94C40.44 15.94 40.96 16.27 40.96 16.74C40.96 16.74 40.96 17.22 40.55 17.49C40.55 17.49 40.14 17.75 39.32 17.75C39.32 17.75 38.43 17.75 37.73 17.24C37.73 17.24 37.03 16.72 36.69 15.81L33.1 17.29C33.1 17.29 33.73 19.11 35.4 20.18C35.4 20.18 37.08 21.24 39.39 21.24ZM57.59 9.74C58.47 7.99 60.1 7.04 60.1 7.04C61.72 6.1 63.89 6.1 63.89 6.1C65.92 6.1 67.45 6.9 67.45 6.9C68.98 7.7 69.81 9.19 69.81 9.19C70.64 10.67 70.64 12.65 70.64 12.65C70.64 14.16 70.31 15.36 70.31 15.36L61.29 15.36C61.75 17.75 64.09 17.75 64.09 17.75C64.96 17.75 65.63 17.24 65.63 17.24C66.31 16.72 66.69 15.86 66.69 15.86L70.26 17.32C69.54 19.18 67.92 20.21 67.92 20.21C66.31 21.24 64.06 21.24 64.06 21.24C61.85 21.24 60.18 20.33 60.18 20.33C58.52 19.42 57.61 17.75 57.61 17.75C56.71 16.07 56.71 13.83 56.71 13.83C56.71 11.48 57.59 9.74 57.59 9.74ZM88.62 10.69C88.62 10.69 89.06 11.27 89.06 12.34L89.06 20.91L93.4 20.91L93.4 11.34C93.4 11.34 93.4 8.85 92.26 7.48C92.26 7.48 91.11 6.1 89.09 6.1C89.09 6.1 87.62 6.1 86.55 6.64C86.55 6.64 85.49 7.18 84.72 8.25L84.58 8.25C84.58 8.25 84.14 7.2 83.26 6.65C83.26 6.65 82.38 6.1 81.18 6.1C81.18 6.1 79.88 6.1 78.88 6.65C78.88 6.65 77.88 7.2 77.25 8.25L77.11 8.25L77.11 6.43L72.77 6.43L72.77 20.91L77.11 20.91L77.11 12.58C77.11 12.58 77.11 11.39 77.65 10.75C77.65 10.75 78.19 10.12 79.2 10.12C79.2 10.12 80.02 10.12 80.47 10.69C80.47 10.69 80.91 11.27 80.91 12.34L80.91 20.91L85.25 20.91L85.25 12.58C85.25 12.58 85.25 11.39 85.8 10.75C85.8 10.75 86.34 10.12 87.35 10.12C87.35 10.12 88.17 10.12 88.62 10.69ZM105.08 6.79C105.08 6.79 103.74 6.1 101.98 6.1C101.98 6.1 98.3 6.1 95.88 9.07L98.7 11.15C98.7 11.15 99.91 9.66 101.4 9.66C101.4 9.66 102.44 9.66 103.01 10.2C103.01 10.2 103.57 10.74 103.57 11.77L103.57 12.03L102.32 12.03C102.32 12.03 100.25 12.03 98.67 12.67C98.67 12.67 97.09 13.3 96.23 14.45C96.23 14.45 95.38 15.6 95.38 17.08C95.38 17.08 95.38 19.04 96.64 20.14C96.64 20.14 97.91 21.24 99.81 21.24C99.81 21.24 101.12 21.24 102.06 20.75C102.06 20.75 103 20.26 103.43 19.3L103.57 19.3L103.57 20.91L107.91 20.91L107.91 11.63C107.91 11.63 107.91 10 107.17 8.74C107.17 8.74 106.42 7.49 105.08 6.79ZM143.67 7.04C143.67 7.04 142.04 7.99 141.16 9.74C141.16 9.74 140.28 11.48 140.28 13.83C140.28 13.83 140.28 16.07 141.19 17.75C141.19 17.75 142.09 19.42 143.75 20.33C143.75 20.33 145.42 21.24 147.63 21.24C147.63 21.24 149.88 21.24 151.49 20.21C151.49 20.21 153.11 19.18 153.83 17.32L150.26 15.86C150.26 15.86 149.88 16.72 149.2 17.24C149.2 17.24 148.53 17.75 147.66 17.75C147.66 17.75 145.32 17.75 144.86 15.36L153.88 15.36C153.88 15.36 154.22 14.16 154.22 12.65C154.22 12.65 154.22 10.67 153.38 9.19C153.38 9.19 152.55 7.7 151.02 6.9C151.02 6.9 149.49 6.1 147.47 6.1C147.47 6.1 145.3 6.1 143.67 7.04ZM183.94 13.83C183.94 11.48 184.82 9.74 184.82 9.74C185.7 7.99 187.33 7.04 187.33 7.04C188.95 6.1 191.12 6.1 191.12 6.1C193.15 6.1 194.68 6.9 194.68 6.9C196.21 7.7 197.04 9.19 197.04 9.19C197.87 10.67 197.87 12.65 197.87 12.65C197.87 14.16 197.54 15.36 197.54 15.36L188.52 15.36C188.98 17.75 191.32 17.75 191.32 17.75C192.18 17.75 192.86 17.24 192.86 17.24C193.53 16.72 193.92 15.86 193.92 15.86L197.49 17.32C196.76 19.18 195.15 20.21 195.15 20.21C193.53 21.24 191.29 21.24 191.29 21.24C189.07 21.24 187.41 20.33 187.41 20.33C185.75 19.42 184.84 17.75 184.84 17.75C183.94 16.07 183.94 13.83 183.94 13.83ZM210.88 18.99C210.1 20.05 208.72 20.64 208.72 20.64C207.35 21.24 205.66 21.24 205.66 21.24C203.35 21.24 201.67 20.18 201.67 20.18C199.99 19.11 199.37 17.29 199.37 17.29L202.96 15.81C203.3 16.72 204 17.24 204 17.24C204.7 17.75 205.59 17.75 205.59 17.75C206.41 17.75 206.82 17.49 206.82 17.49C207.23 17.22 207.23 16.74 207.23 16.74C207.23 16.27 206.71 15.94 206.71 15.94C206.19 15.62 205.15 15.41 205.15 15.41C202.53 14.81 201.06 13.67 201.06 13.67C199.58 12.53 199.58 10.67 199.58 10.67C199.58 9.28 200.32 8.25 200.32 8.25C201.06 7.22 202.38 6.66 202.38 6.66C203.71 6.1 205.47 6.1 205.47 6.1C207.61 6.1 209.28 7.16 209.28 7.16C210.94 8.23 211.61 10.05 211.61 10.05L208.05 11.51C207.64 10.62 206.95 10.11 206.95 10.11C206.26 9.59 205.54 9.59 205.54 9.59C204.79 9.59 204.41 9.87 204.41 9.87C204.02 10.14 204.02 10.6 204.02 10.6C204.02 11.1 204.56 11.41 204.56 11.41C205.11 11.72 206.6 12.03 206.6 12.03C211.66 13.16 211.66 16.6 211.66 16.6C211.66 17.94 210.88 18.99 210.88 18.99ZM221.39 9.54C221.39 9.54 220.68 11.2 220.68 13.42C220.68 13.42 220.68 15.74 221.41 17.45C221.41 17.45 222.15 19.16 223.52 20.08C223.52 20.08 224.9 21 226.73 21C226.73 21 227.79 21 228.72 20.48C228.72 20.48 229.65 19.95 230.18 18.99L230.32 18.99L230.32 20.84C230.32 20.84 230.32 22.1 229.61 22.87C229.61 22.87 228.9 23.63 227.67 23.63C227.67 23.63 226.66 23.63 225.9 23.11C225.9 23.11 225.14 22.58 224.7 21.65L221.02 23.16C221.02 23.16 221.74 25.05 223.52 26.13C223.52 26.13 225.31 27.22 227.81 27.22C227.81 27.22 229.96 27.22 231.5 26.35C231.5 26.35 233.05 25.48 233.85 23.87C233.85 23.87 234.66 22.27 234.66 20.14L234.66 6.43L230.32 6.43L230.32 8.11L230.18 8.11C230.18 8.11 229.57 7.15 228.61 6.63C228.61 6.63 227.65 6.1 226.49 6.1C226.49 6.1 224.73 6.1 223.41 7C223.41 7 222.1 7.89 221.39 9.54ZM243.46 6.67C244.47 6.1 245.82 6.1 245.82 6.1C247.99 6.1 249.17 7.49 249.17 7.49C250.35 8.87 250.35 11.43 250.35 11.43L250.35 20.91L246.01 20.91L246.01 12.44C246.01 11.39 245.5 10.79 245.5 10.79C244.98 10.19 244.06 10.19 244.06 10.19C242.98 10.19 242.34 10.86 242.34 10.86C241.7 11.53 241.7 12.7 241.7 12.7L241.7 20.91L237.36 20.91L237.36 6.43L241.7 6.43L241.7 8.3L241.82 8.3C242.45 7.25 243.46 6.67 243.46 6.67ZM24.47 15.76L27.46 6.43L32.28 6.43L24.16 26.89L19.53 26.89L22.06 20.91L16.3 6.43L21.12 6.43L24.32 15.76L24.47 15.76ZM124.27 6.43L124.27 20.91L119.94 20.91L119.94 6.43L124.27 6.43ZM126.64 10.48L126.64 6.43L138.62 6.43L138.62 9.5L132.66 16.86L138.93 16.86L138.93 20.91L126.47 20.91L126.47 17.85L132.42 10.48L126.64 10.48ZM213.95 6.43L213.95 20.91L218.29 20.91L218.29 6.43L213.95 6.43ZM66.23 11.86C66.23 10.84 65.61 10.21 65.61 10.21C64.98 9.59 63.89 9.59 63.89 9.59C61.92 9.59 61.36 11.86 61.36 11.86L66.23 11.86ZM147.47 9.59C144.93 9.59 144.93 11.86 144.93 11.86L149.8 11.86C149.8 10.84 149.18 10.21 149.18 10.21C148.55 9.59 147.47 9.59 147.47 9.59ZM188.59 11.86C188.59 11.86 189.15 9.59 191.12 9.59C191.12 9.59 192.21 9.59 192.83 10.21C192.83 10.21 193.46 10.84 193.46 11.86L188.59 11.86ZM225.83 11.05C225.83 11.05 226.54 10.12 227.72 10.12C227.72 10.12 228.97 10.12 229.69 11.05C229.69 11.05 230.42 11.98 230.42 13.56C230.42 13.56 230.42 15.14 229.72 16.06C229.72 16.06 229.02 16.98 227.81 16.98C227.81 16.98 226.56 16.98 225.84 16.06C225.84 16.06 225.11 15.14 225.11 13.56C225.11 13.56 225.11 11.98 225.83 11.05ZM103.57 16.07C103.57 16.07 103.57 16.84 102.92 17.29C102.92 17.29 102.27 17.75 101.21 17.75C101.21 17.75 100.56 17.75 100.19 17.47C100.19 17.47 99.81 17.2 99.81 16.79C99.81 16.79 99.81 16.1 100.55 15.81C100.55 15.81 101.28 15.52 102.75 15.52L103.57 15.52L103.57 16.07Z" /><path id="减去顶层" fill-rule="evenodd" fill="url(#linear_0)" transform="translate(0.04012815289573014 0)  rotate(0 18.2228711147261 25)" opacity="1" d="M2.61 6.89C1.08 7.24 0 8.59 0 10.15L0 37.58C0 39.05 0.96 40.35 2.37 40.78L13.93 44.3L13.93 18.94C13.93 17.92 14.4 16.96 15.2 16.32C16.01 15.69 17.06 15.46 18.06 15.69L24.76 17.25L24.76 14.21C24.76 13.19 25.23 12.22 26.04 11.59C26.84 10.96 27.9 10.72 28.9 10.96L36.45 12.72L36.45 3.34C36.45 2.32 35.98 1.36 35.18 0.73C34.37 0.09 33.32 -0.14 32.32 0.09L2.61 6.89ZM36.45 14.43L36.45 19.97L26.45 17.64L26.45 14.21C26.45 14.08 26.46 13.96 26.49 13.83C26.52 13.71 26.56 13.6 26.61 13.48C26.67 13.37 26.74 13.27 26.81 13.17C26.89 13.07 26.98 12.98 27.09 12.9C27.19 12.82 27.29 12.75 27.41 12.7C27.52 12.65 27.64 12.61 27.76 12.58C27.88 12.55 28.01 12.54 28.13 12.54C28.26 12.54 28.39 12.55 28.51 12.58L36.45 14.43ZM16.57 17.43C16.45 17.49 16.35 17.55 16.25 17.63Q16.1 17.75 15.98 17.9C15.9 18 15.83 18.1 15.77 18.21C15.72 18.33 15.68 18.44 15.65 18.57C15.62 18.69 15.61 18.81 15.61 18.94L15.61 44.82L24.76 47.61L24.76 18.97L17.67 17.31C17.55 17.29 17.42 17.27 17.29 17.27C17.17 17.27 17.05 17.28 16.92 17.31C16.8 17.34 16.68 17.38 16.57 17.43ZM36.45 21.69L36.45 46.66C36.45 47.72 35.94 48.72 35.08 49.35C34.22 49.98 33.11 50.16 32.09 49.85L26.45 48.13L26.45 19.36L36.45 21.69Z" /></g></svg>