<svg xmlns="http://www.w3.org/2000/svg" xmlns:xlink="http://www.w3.org/1999/xlink" width="295" height="26" viewBox="0 0 295 26" fill="none"><defs><linearGradient id="linear_0" x1="0%" y1="17.697969390149595%" x2="99.99908682545262%" y2="100.00020189513357%" gradientUnits="objectBoundingBox"><stop offset="0" stop-color="#FFB963" stop-opacity="1" /><stop offset="0.9934" stop-color="#FF8A8A" stop-opacity="1" /></linearGradient></defs><g opacity="1" transform="translate(0 -0.0000015282234926417004)  rotate(0 147.0343123119286 12.619966127832848)"><path id="减去顶层" fill-rule="evenodd" fill="url(#linear_0)" transform="translate(0 0)  rotate(0 8.966925253336889 12.619966127832848)" opacity="1" d="M6.85 9.56C6.85 9.05 7.08 8.56 7.48 8.24C7.88 7.92 8.39 7.8 8.89 7.92L12.19 8.71L12.19 7.17C12.19 6.66 12.42 6.17 12.81 5.85C13.21 5.53 13.73 5.41 14.22 5.53L17.93 6.42L17.93 1.69C17.93 1.17 17.7 0.69 17.31 0.37C16.91 0.05 16.4 -0.07 15.91 0.04L1.28 3.48C0.53 3.66 0 4.34 0 5.12L0 18.97C0 19.71 0.47 20.37 1.17 20.58L6.85 22.36L6.85 9.56ZM13.19 6.65C13.23 6.6 13.28 6.55 13.33 6.51C13.38 6.47 13.43 6.44 13.49 6.41C13.54 6.38 13.6 6.36 13.66 6.35C13.72 6.34 13.78 6.33 13.84 6.33C13.91 6.33 13.97 6.34 14.03 6.35L17.93 7.29L17.93 10.08L13.01 8.91L13.01 7.17C13.01 7.11 13.02 7.05 13.03 6.98C13.05 6.92 13.07 6.86 13.1 6.81C13.12 6.75 13.16 6.7 13.19 6.65ZM12.19 9.57L8.7 8.74C8.63 8.73 8.57 8.72 8.51 8.72C8.45 8.72 8.39 8.72 8.33 8.74C8.27 8.75 8.21 8.77 8.15 8.8C8.1 8.83 8.04 8.86 7.99 8.9C7.94 8.94 7.9 8.99 7.86 9.04C7.82 9.08 7.79 9.14 7.76 9.19C7.74 9.25 7.71 9.31 7.7 9.37C7.69 9.43 7.68 9.5 7.68 9.56L7.68 22.62L12.19 24.04L12.19 9.57ZM17.93 23.55C17.93 24.09 17.68 24.59 17.26 24.91C16.84 25.23 16.29 25.32 15.79 25.17L13.01 24.29L13.01 9.77L17.93 10.95L17.93 23.55Z" /><path id="文本 1" fill-rule="evenodd" style="fill:#000000" transform="translate(28.871907229058042 4.277496047460628)  rotate(0 132.5983586973996 9.826331911904992)" opacity="1" d="M94.25 3.13C94.25 3.13 94.74 2.64 94.74 1.81C94.74 1.81 94.74 0.98 94.25 0.49C94.25 0.49 93.76 0 92.91 0C92.91 0 92.08 0 91.6 0.49C91.6 0.49 91.12 0.98 91.12 1.81C91.12 1.81 91.12 2.64 91.6 3.13C91.6 3.13 92.08 3.63 92.91 3.63C92.91 3.63 93.76 3.63 94.25 3.13ZM161.63 0.49C161.63 0.49 161.15 0.98 161.15 1.81C161.15 1.81 161.15 2.64 161.63 3.13C161.63 3.13 162.11 3.63 162.94 3.63C162.94 3.63 163.79 3.63 164.28 3.13C164.28 3.13 164.77 2.64 164.77 1.81C164.77 1.81 164.77 0.98 164.28 0.49C164.28 0.49 163.79 0 162.94 0C162.94 0 162.11 0 161.63 0.49ZM234.82 3.09L237.2 2.68C237.2 2.68 236.87 1.21 236.53 0.07L234.23 0.55L234.39 1.19C234.39 1.19 234.68 2.26 234.82 3.09ZM227.04 13.38C227.2 13.23 227.2 12.73 227.2 12.73L227.2 0.12L229.55 0.12L229.55 13.76C229.55 14.64 229.32 15.15 229.32 15.15C229.1 15.65 228.55 15.87 228.55 15.87C227.99 16.1 227.01 16.1 227.01 16.1L225.04 16.1L224.5 13.52L226.34 13.52C226.89 13.52 227.04 13.38 227.04 13.38ZM222.55 9.53C222.55 9.53 222.59 9.05 222.6 8.55C222.6 8.55 222.62 8.05 222.64 7.63L222.73 5.82L223.87 3.99L223.36 3.4C223.36 3.4 222.19 2.06 221.54 1.34C221.54 1.34 220.9 0.62 220.39 0.19L218.25 0.19C218.25 0.19 217.67 1.3 216.6 2.7C216.6 2.7 215.52 4.11 214.54 4.89L215.16 7.62C215.16 7.62 215.37 7.44 215.77 7.05L215.77 13.19C215.77 13.19 215.77 14.64 216.35 15.21C216.35 15.21 216.94 15.78 218.3 15.78L220.69 15.78C220.69 15.78 221.74 15.78 222.32 15.6C222.32 15.6 222.9 15.42 223.17 14.99C223.17 14.99 223.43 14.56 223.5 13.73C223.5 13.73 223.54 13.45 223.57 12.77C223.57 12.77 223.61 12.09 223.61 11.71L221.85 11.47C221.85 11.47 222.21 11.21 222.36 10.75C222.36 10.75 222.52 10.29 222.55 9.53ZM197.27 5.3L200.2 5.3L200.2 8.36L196.77 8.36L196.77 10.88L201.67 10.88C201.67 10.88 200.46 11.78 199.19 12.59C199.19 12.59 197.92 13.4 196.89 13.9L198.25 16.2C198.25 16.2 202.02 13.87 203.8 12.54L202.52 10.88L206.75 10.88L205.56 12.55C205.56 12.55 206.68 13.23 208.23 14.27C208.23 14.27 209.79 15.32 210.82 16.1L212.43 13.9C212.43 13.9 211.72 13.42 208.77 11.54C208.77 11.54 208.49 11.35 208.23 11.19C208.23 11.19 207.96 11.04 207.73 10.88L212.53 10.88L212.53 8.36L209.03 8.36L209.03 5.3L211.98 5.3L211.98 2.81L209.03 2.81L209.03 0.22L206.27 0.22L206.27 2.81L203 2.81L203 0.22L200.2 0.22L200.2 2.81L197.27 2.81L197.27 5.3ZM244.3 6.87L244.3 12.83L247.79 12.83L247.79 15.32L238.03 15.32L238.03 12.83L241.66 12.83L241.66 6.87L238.84 6.87L238.84 4.32L241.66 4.32L241.66 0.28L244.3 0.28L244.3 4.32L247.32 4.32L247.32 6.87L244.3 6.87ZM250.85 15.63L250.85 0.66L264.89 0.66L264.89 3.19L261.85 3.19L263.61 4.51C262.23 6.36 260.79 7.93 260.79 7.93L263.87 11.02L261.93 13C260.19 11.12 258.95 9.84 258.95 9.84C257.08 11.71 255.49 12.88 255.49 12.88L253.83 10.71C255.37 9.6 257.08 7.94 257.08 7.94C255.32 6.15 254.25 5.13 254.25 5.13L255.97 3.28C257.2 4.4 258.91 6.06 258.91 6.06C260.38 4.46 261.31 3.19 261.31 3.19L253.47 3.19L253.47 13.12L265.2 13.12L265.2 15.63L250.85 15.63ZM11.04 4.27L8.27 5.56C7.82 4.61 7.2 4.2 7.2 4.2C6.58 3.78 5.7 3.78 5.7 3.78C4.87 3.78 4.32 4.14 4.32 4.14C3.76 4.49 3.76 5.01 3.76 5.01C3.76 5.42 3.98 5.69 3.98 5.69C4.2 5.96 4.72 6.18 4.72 6.18C5.25 6.41 6.32 6.7 6.32 6.7C7.68 7.06 8.62 7.46 8.62 7.46C9.55 7.86 10.26 8.7 10.26 8.7C10.97 9.55 10.97 10.97 10.97 10.97C10.97 12.28 10.28 13.27 10.28 13.27C9.58 14.26 8.35 14.8 8.35 14.8C7.12 15.34 5.53 15.34 5.53 15.34C3.57 15.34 2.13 14.37 2.13 14.37C0.69 13.4 0 11.81 0 11.81L2.78 10.52C3.13 11.45 3.86 11.93 3.86 11.93C4.59 12.42 5.54 12.42 5.54 12.42C6.53 12.42 7.11 12.06 7.11 12.06C7.68 11.71 7.68 11.14 7.68 11.14C7.68 10.74 7.48 10.48 7.48 10.48C7.27 10.22 6.74 9.99 6.74 9.99C6.2 9.76 5.15 9.46 5.15 9.46C3.75 9.07 2.82 8.67 2.82 8.67C1.9 8.27 1.19 7.42 1.19 7.42C0.48 6.56 0.48 5.16 0.48 5.16C0.48 3.92 1.18 2.94 1.18 2.94C1.88 1.97 3.08 1.42 3.08 1.42C4.28 0.86 5.73 0.86 5.73 0.86C9.43 0.86 11.04 4.27 11.04 4.27ZM136.63 4.38C137.48 5.96 137.48 8.1 137.48 8.1C137.48 10.24 136.6 11.82 136.6 11.82C135.72 13.4 134.04 14.25 134.04 14.25C132.37 15.09 130.04 15.09 130.04 15.09L125.34 15.09L125.34 1.11L130.33 1.11C132.58 1.11 134.18 1.95 134.18 1.95C135.79 2.8 136.63 4.38 136.63 4.38ZM41.8 4.65L41.8 7.58L39.14 7.58L39.14 11.21C39.14 11.73 39.45 12.01 39.45 12.01C39.76 12.3 40.33 12.3 40.33 12.3C40.95 12.3 41.59 12.11 41.59 12.11L41.59 15.04C40.59 15.34 39.57 15.34 39.57 15.34C37.86 15.34 36.95 14.39 36.95 14.39C36.03 13.45 36.03 11.69 36.03 11.69L36.03 7.58L34.43 7.58L34.43 4.65L36.03 4.65L36.03 1.76L39.14 1.76L39.14 4.65L41.8 4.65ZM89.25 15.04L89.25 12.11C89.25 12.11 88.61 12.3 87.99 12.3C87.99 12.3 87.42 12.3 87.11 12.01C87.11 12.01 86.8 11.73 86.8 11.21L86.8 7.58L89.46 7.58L89.46 4.65L86.8 4.65L86.8 1.76L83.69 1.76L83.69 4.65L82.08 4.65L82.08 7.58L83.69 7.58L83.69 11.69C83.69 11.69 83.69 13.45 84.6 14.39C84.6 14.39 85.52 15.34 87.23 15.34C87.23 15.34 88.25 15.34 89.25 15.04ZM226.18 11.62L223.93 11.62L223.93 1.8L226.18 1.8L226.18 11.62ZM217.37 5.25L221.85 5.25C220.08 2.78 219.51 2.16 219.51 2.16C218.51 3.8 217.37 5.25 217.37 5.25ZM240 9.83C240 9.83 238.91 8.84 237.1 7.34C237.1 7.34 237.63 6.55 238.17 5.6L238.17 3.19L232.52 3.19L232.52 5.51L235.63 5.51C235.63 5.51 234.78 6.67 234.01 7.49C234.01 7.49 233.23 8.32 232.16 9.1L232.81 11.97C232.81 11.97 233.59 11.42 234.28 10.76L234.28 16.04L236.66 16.04L236.66 10.03C236.66 10.03 237.82 11.05 238.48 11.67L240 9.83ZM128.55 12.09L130.05 12.09C132.02 12.09 133.11 11.03 133.11 11.03C134.2 9.96 134.2 8.1 134.2 8.1C134.2 6.23 133.15 5.17 133.15 5.17C132.11 4.11 130.19 4.11 130.19 4.11L128.55 4.11L128.55 12.09ZM25.69 9.87C25.69 9.87 26.74 10.69 28.62 11.12C28.62 11.12 29.36 11.28 29.73 11.51C29.73 11.51 30.11 11.74 30.11 12.09C30.11 12.09 30.11 12.43 29.81 12.62C29.81 12.62 29.52 12.81 28.93 12.81C28.93 12.81 28.29 12.81 27.79 12.44C27.79 12.44 27.29 12.07 27.05 11.42L24.48 12.49C24.48 12.49 24.93 13.8 26.13 14.57C26.13 14.57 27.33 15.34 28.98 15.34C28.98 15.34 30.19 15.34 31.18 14.9C31.18 14.9 32.16 14.47 32.72 13.71C32.72 13.71 33.28 12.95 33.28 11.99C33.28 11.99 33.28 9.5 29.66 8.69C29.66 8.69 28.59 8.46 28.2 8.24C28.2 8.24 27.81 8.01 27.81 7.65C27.81 7.65 27.81 7.32 28.09 7.12C28.09 7.12 28.36 6.93 28.9 6.93C28.9 6.93 29.42 6.93 29.91 7.3C29.91 7.3 30.4 7.67 30.69 8.31L33.25 7.25C33.25 7.25 32.77 5.94 31.57 5.17C31.57 5.17 30.38 4.4 28.85 4.4C28.85 4.4 27.58 4.4 26.63 4.81C26.63 4.81 25.69 5.22 25.16 5.96C25.16 5.96 24.63 6.7 24.63 7.7C24.63 7.7 24.63 9.05 25.69 9.87ZM43.12 9.98C43.12 8.29 43.75 7.03 43.75 7.03C44.38 5.77 45.54 5.09 45.54 5.09C46.71 4.4 48.26 4.4 48.26 4.4C49.71 4.4 50.81 4.98 50.81 4.98C51.91 5.56 52.5 6.63 52.5 6.63C53.1 7.7 53.1 9.14 53.1 9.14C53.1 10.22 52.86 11.09 52.86 11.09L46.4 11.09C46.72 12.81 48.4 12.81 48.4 12.81C49.02 12.81 49.5 12.44 49.5 12.44C49.99 12.07 50.26 11.45 50.26 11.45L52.82 12.5C52.3 13.85 51.15 14.59 51.15 14.59C49.99 15.34 48.38 15.34 48.38 15.34C46.79 15.34 45.6 14.68 45.6 14.68C44.41 14.02 43.76 12.81 43.76 12.81C43.12 11.61 43.12 9.98 43.12 9.98ZM69.78 8.19L69.78 15.09L66.67 15.09L66.67 8.91C66.67 8.13 66.35 7.72 66.35 7.72C66.03 7.3 65.45 7.3 65.45 7.3C64.72 7.3 64.33 7.76 64.33 7.76C63.94 8.22 63.94 9.08 63.94 9.08L63.94 15.09L60.84 15.09L60.84 8.91C60.84 8.13 60.52 7.72 60.52 7.72C60.2 7.3 59.61 7.3 59.61 7.3C58.88 7.3 58.5 7.76 58.5 7.76C58.11 8.22 58.11 9.08 58.11 9.08L58.11 15.09L55 15.09L55 4.65L58.11 4.65L58.11 5.96L58.21 5.96C58.66 5.2 59.38 4.8 59.38 4.8C60.09 4.4 61.03 4.4 61.03 4.4C61.89 4.4 62.52 4.8 62.52 4.8C63.15 5.2 63.46 5.96 63.46 5.96L63.56 5.96C64.12 5.18 64.88 4.79 64.88 4.79C65.64 4.4 66.69 4.4 66.69 4.4C68.14 4.4 68.96 5.4 68.96 5.4C69.78 6.39 69.78 8.19 69.78 8.19ZM76.55 8.69C76.55 8.69 75.07 8.69 73.94 9.14C73.94 9.14 72.81 9.6 72.19 10.43C72.19 10.43 71.58 11.26 71.58 12.33C71.58 12.33 71.58 13.75 72.49 14.54C72.49 14.54 73.39 15.34 74.76 15.34C74.76 15.34 75.69 15.34 76.36 14.98C76.36 14.98 77.04 14.63 77.35 13.94L77.45 13.94L77.45 15.09L80.56 15.09L80.56 8.39C80.56 8.39 80.56 7.22 80.03 6.31C80.03 6.31 79.49 5.41 78.53 4.9C78.53 4.9 77.57 4.4 76.31 4.4C76.31 4.4 73.67 4.4 71.94 6.55L73.96 8.05C73.96 8.05 74.83 6.98 75.9 6.98C75.9 6.98 76.64 6.98 77.05 7.37C77.05 7.37 77.45 7.75 77.45 8.5L77.45 8.69L76.55 8.69ZM107.36 12.81C107.36 12.81 108.01 14.02 109.2 14.68C109.2 14.68 110.4 15.34 111.98 15.34C111.98 15.34 113.59 15.34 114.75 14.59C114.75 14.59 115.9 13.85 116.42 12.5L113.87 11.45C113.87 11.45 113.59 12.07 113.11 12.44C113.11 12.44 112.62 12.81 112 12.81C112 12.81 110.33 12.81 110 11.09L116.46 11.09C116.46 11.09 116.7 10.22 116.7 9.14C116.7 9.14 116.7 7.7 116.1 6.63C116.1 6.63 115.51 5.56 114.41 4.98C114.41 4.98 113.31 4.4 111.86 4.4C111.86 4.4 110.31 4.4 109.14 5.09C109.14 5.09 107.98 5.77 107.35 7.03C107.35 7.03 106.72 8.29 106.72 9.98C106.72 9.98 106.72 11.61 107.36 12.81ZM142.42 11.09L148.88 11.09C148.88 11.09 149.12 10.22 149.12 9.14C149.12 9.14 149.12 7.7 148.53 6.63C148.53 6.63 147.93 5.56 146.83 4.98C146.83 4.98 145.74 4.4 144.29 4.4C144.29 4.4 142.73 4.4 141.57 5.09C141.57 5.09 140.4 5.77 139.77 7.03C139.77 7.03 139.14 8.29 139.14 9.98C139.14 9.98 139.14 11.61 139.79 12.81C139.79 12.81 140.44 14.02 141.63 14.68C141.63 14.68 142.82 15.34 144.41 15.34C144.41 15.34 146.01 15.34 147.17 14.59C147.17 14.59 148.33 13.85 148.85 12.5L146.29 11.45C146.29 11.45 146.01 12.07 145.53 12.44C145.53 12.44 145.05 12.81 144.42 12.81C144.42 12.81 142.75 12.81 142.42 11.09ZM155.03 12.81C155.62 12.81 155.91 12.62 155.91 12.62C156.21 12.43 156.21 12.09 156.21 12.09C156.21 11.74 155.83 11.51 155.83 11.51C155.46 11.28 154.72 11.12 154.72 11.12C152.84 10.69 151.78 9.87 151.78 9.87C150.73 9.05 150.73 7.7 150.73 7.7C150.73 6.7 151.26 5.96 151.26 5.96C151.78 5.22 152.73 4.81 152.73 4.81C153.68 4.4 154.94 4.4 154.94 4.4C156.48 4.4 157.67 5.17 157.67 5.17C158.86 5.94 159.35 7.25 159.35 7.25L156.79 8.31C156.5 7.67 156.01 7.3 156.01 7.3C155.51 6.93 155 6.93 155 6.93C154.46 6.93 154.18 7.12 154.18 7.12C153.91 7.32 153.91 7.65 153.91 7.65C153.91 8.01 154.3 8.24 154.3 8.24C154.69 8.46 155.76 8.69 155.76 8.69C159.38 9.5 159.38 11.99 159.38 11.99C159.38 12.95 158.82 13.71 158.82 13.71C158.26 14.47 157.28 14.9 157.28 14.9C156.29 15.34 155.08 15.34 155.08 15.34C153.42 15.34 152.22 14.57 152.22 14.57C151.02 13.8 150.58 12.49 150.58 12.49L153.15 11.42C153.39 12.07 153.89 12.44 153.89 12.44C154.39 12.81 155.03 12.81 155.03 12.81ZM170.35 16.68C170.35 16.68 169.8 16.3 169.49 15.63L166.85 16.72C166.85 16.72 167.37 18.08 168.64 18.87C168.64 18.87 169.92 19.65 171.72 19.65C171.72 19.65 173.26 19.65 174.36 19.02C174.36 19.02 175.47 18.39 176.04 17.23C176.04 17.23 176.62 16.08 176.62 14.54L176.62 4.65L173.51 4.65L173.51 5.85L173.41 5.85C173.41 5.85 172.98 5.16 172.29 4.78C172.29 4.78 171.6 4.4 170.77 4.4C170.77 4.4 169.51 4.4 168.57 5.05C168.57 5.05 167.63 5.7 167.12 6.89C167.12 6.89 166.61 8.08 166.61 9.69C166.61 9.69 166.61 11.36 167.13 12.6C167.13 12.6 167.66 13.83 168.64 14.5C168.64 14.5 169.63 15.16 170.94 15.16C170.94 15.16 171.7 15.16 172.37 14.78C172.37 14.78 173.03 14.4 173.41 13.71L173.51 13.71L173.51 15.04C173.51 15.04 173.51 15.96 173 16.51C173 16.51 172.5 17.06 171.61 17.06C171.61 17.06 170.89 17.06 170.35 16.68ZM182.05 15.09L178.94 15.09L178.94 4.65L182.05 4.65L182.05 5.99L182.13 5.99C182.58 5.23 183.31 4.82 183.31 4.82C184.03 4.4 185 4.4 185 4.4C186.56 4.4 187.4 5.41 187.4 5.41C188.25 6.41 188.25 8.25 188.25 8.25L188.25 15.09L185.14 15.09L185.14 8.98C185.14 8.22 184.77 7.79 184.77 7.79C184.4 7.36 183.74 7.36 183.74 7.36C182.96 7.36 182.51 7.84 182.51 7.84C182.05 8.32 182.05 9.17 182.05 9.17L182.05 15.09ZM14.37 19.41L17.69 19.41L23.51 4.65L20.05 4.65L17.91 11.38L17.81 11.38L15.51 4.65L12.06 4.65L16.18 15.09L14.37 19.41ZM94.49 4.65L94.49 15.09L91.38 15.09L91.38 4.65L94.49 4.65ZM105.14 4.65L96.56 4.65L96.56 7.56L100.7 7.56L96.44 12.88L96.44 15.09L105.37 15.09L105.37 12.17L100.88 12.17L105.14 6.86L105.14 4.65ZM164.51 4.65L164.51 15.09L161.41 15.09L161.41 4.65L164.51 4.65ZM203 5.3L206.27 5.3L206.27 8.36L203 8.36L203 5.3ZM46.45 8.57L49.94 8.57C49.94 7.82 49.49 7.37 49.49 7.37C49.04 6.93 48.26 6.93 48.26 6.93C46.85 6.93 46.45 8.57 46.45 8.57ZM111.86 6.93C111.86 6.93 112.64 6.93 113.09 7.37C113.09 7.37 113.54 7.82 113.54 8.57L110.05 8.57C110.05 8.57 110.45 6.93 111.86 6.93ZM142.47 8.57C142.47 8.57 142.87 6.93 144.29 6.93C144.29 6.93 145.06 6.93 145.51 7.37C145.51 7.37 145.96 7.82 145.96 8.57L142.47 8.57ZM170.3 11.6C170.3 11.6 169.78 10.93 169.78 9.79C169.78 9.79 169.78 8.65 170.29 7.98C170.29 7.98 170.8 7.3 171.65 7.3C171.65 7.3 172.55 7.3 173.07 7.98C173.07 7.98 173.58 8.65 173.58 9.79C173.58 9.79 173.58 10.93 173.08 11.6C173.08 11.6 172.58 12.26 171.72 12.26C171.72 12.26 170.82 12.26 170.3 11.6ZM220.55 7.56L218.08 7.56L218.08 12.5C218.08 13 218.12 13.19 218.12 13.19C218.17 13.37 218.35 13.44 218.35 13.44C218.53 13.5 218.98 13.5 218.98 13.5L220.38 13.5C220.77 13.5 220.96 13.43 220.96 13.43C221.15 13.35 221.21 13.16 221.21 13.16C221.28 12.97 221.29 12.55 221.29 12.55C221.31 12.24 221.31 11.73 221.31 11.73C220.93 11.85 220.29 11.85 220.29 11.85L218.89 11.85L218.49 9.71L219.65 9.71C220.07 9.71 220.21 9.66 220.21 9.66C220.36 9.62 220.4 9.49 220.4 9.49C220.45 9.36 220.48 8.96 220.48 8.96C220.55 8.2 220.55 7.56 220.55 7.56ZM75.03 12.62C75.03 12.62 74.76 12.42 74.76 12.12C74.76 12.12 74.76 11.62 75.28 11.42C75.28 11.42 75.81 11.21 76.87 11.21L77.45 11.21L77.45 11.61C77.45 11.61 77.45 12.16 76.99 12.49C76.99 12.49 76.52 12.81 75.76 12.81C75.76 12.81 75.29 12.81 75.03 12.62Z" /></g></svg>